<svg width="34" height="44" viewBox="0 0 34 44" fill="none" xmlns="http://www.w3.org/2000/svg">
<path d="M31.4205 10.6674H25.5791V9.06382C25.5791 6.41852 23.973 4.26661 21.9986 4.26661H12.1983C10.2239 4.26661 8.6178 6.41852 8.6178 9.06382V10.6674H2.77645C1.92733 10.6674 1.24194 11.5857 1.24194 12.7234V34.9414C1.24194 37.5867 2.84807 39.7386 4.82245 39.7386H29.3745C31.3489 39.7386 32.955 37.5867 32.955 34.9414V12.7234C32.955 11.5857 32.2696 10.6674 31.4205 10.6674ZM11.6868 9.06382C11.6868 8.69373 11.9221 8.37851 12.1983 8.37851H21.9986C22.2749 8.37851 22.5101 8.69373 22.5101 9.06382V10.6674H11.6868V9.06382ZM19.789 23.99V26.7039H14.408V23.99H19.789ZM29.886 34.9414C29.886 35.3114 29.661 35.6267 29.3745 35.6267H4.82245C4.53598 35.6267 4.31095 35.3114 4.31095 34.9414V24.6616C5.81473 26.3612 7.75846 27.4029 9.87607 27.4029H11.339V28.7598C11.339 29.8975 12.0244 30.8158 12.8735 30.8158H21.3235C22.1726 30.8158 22.858 29.8975 22.858 28.7598V27.4029H24.3209C26.4385 27.4029 28.3822 26.3612 29.886 24.6616V34.9414Z" fill="url(#paint0_linear_445_125)"/>
<defs>
<linearGradient id="paint0_linear_445_125" x1="17.0985" y1="4.26661" x2="17.0985" y2="39.7386" gradientUnits="userSpaceOnUse">
<stop stop-color="#2F4C8F"/>
<stop offset="1" stop-color="#2581BF"/>
</linearGradient>
</defs>
</svg>
