<svg width="30" height="30" viewBox="0 0 30 30" fill="none" xmlns="http://www.w3.org/2000/svg">
<rect width="30" height="30" fill="#F5F5F5"/>
<g clip-path="url(#clip0_0_1)">
<rect width="1920" height="1447" transform="translate(-66 -873)" fill="white"/>
<g filter="url(#filter0_d_0_1)">
<path d="M-57.1687 -877C-57.1687 -882.523 -52.6915 -887 -47.1687 -887H250C255.523 -887 260 -882.523 260 -877V845C260 850.523 255.523 855 250 855H-47.1687C-52.6916 855 -57.1687 850.523 -57.1687 845V-877Z" fill="#094C89"/>
</g>
<path d="M15.6641 0.130249C16.0798 0.206962 16.5001 0.266528 16.9113 0.362194C20.4706 1.1925 23.103 4.26103 23.3907 7.91077C23.4168 8.23838 23.3375 8.60209 23.4565 8.88638C23.5683 9.15082 23.8947 9.31778 24.1004 9.55063C25.0536 10.6273 25.3061 11.8629 24.7614 13.1895C24.2113 14.528 23.1517 15.2238 21.707 15.3195C21.4184 15.3384 21.0676 15.2391 20.8557 15.3709C20.6465 15.5009 20.5834 15.8592 20.4454 16.111C19.9025 17.0992 19.1477 17.888 18.1828 18.4683C18.0313 18.5595 17.9474 18.6551 17.9763 18.8329C17.9808 18.8609 17.9754 18.8907 17.9763 18.9196C17.9943 19.1939 18.0133 19.4683 18.0322 19.7427C18.4263 19.8852 18.7708 20.1425 19.228 20.1343C20.4445 20.1136 21.6619 20.0991 22.8604 20.3934C26.6137 21.313 29.4408 24.5909 29.7726 28.4311C29.797 28.71 29.8177 28.9916 29.815 29.2713C29.8123 29.6188 29.5788 29.8426 29.2298 29.8625C29.1522 29.867 29.0746 29.8643 28.998 29.8643C25.2754 29.8643 21.5528 29.8643 17.8302 29.8643C17.7436 29.8643 17.6562 29.8679 17.5696 29.8616C17.2377 29.8381 17.0006 29.5944 17.0006 29.2822C17.0006 28.9699 17.2395 28.7271 17.5723 28.7055C17.6589 28.7 17.7463 28.7037 17.8329 28.7037C21.3138 28.7037 24.7947 28.7037 28.2757 28.7037C28.3893 28.7037 28.5029 28.7037 28.6174 28.7037C28.3956 24.6848 24.939 21.4213 21.1614 21.3311C21.0081 21.6226 20.89 21.9015 20.725 22.1487C19.9341 23.3301 19.1315 24.5034 18.3316 25.6784C17.9682 26.2118 17.6444 26.2389 17.1827 25.7768C16.4514 25.0458 15.7209 24.3139 14.9715 23.5639C14.8849 23.6442 14.8074 23.7119 14.7352 23.7841C14.0643 24.4537 13.3952 25.1261 12.7243 25.7958C12.2923 26.2272 11.9478 26.2001 11.6105 25.7046C10.7565 24.4501 9.90074 23.1956 9.05576 21.9348C8.94303 21.767 8.88984 21.5594 8.80057 21.3491C5.43057 21.3085 1.55377 24.3653 1.31931 28.7037C1.43473 28.7037 1.54834 28.7037 1.66197 28.7037C5.12305 28.7037 8.58504 28.7037 12.0461 28.7037C12.1137 28.7037 12.1814 28.7037 12.249 28.7037C12.6693 28.7082 12.9344 28.9347 12.9335 29.2858C12.9326 29.6368 12.6674 29.8643 12.2454 29.8643C8.43624 29.8652 4.62617 29.8625 0.817001 29.8697C0.48424 29.8697 0.272316 29.7271 0.114502 29.4591C0.114502 29.1684 0.114502 28.8787 0.114502 28.5881C0.171315 28.2362 0.224512 27.8833 0.285834 27.5322C0.911677 23.9547 4.00843 20.8536 7.59305 20.3022C8.63643 20.1416 9.71316 20.2102 10.7683 20.1127C11.1551 20.0775 11.5646 19.9241 11.8865 19.7084C12.0164 19.6208 11.9406 19.2246 11.9568 18.9692C11.9595 18.9214 11.9523 18.8717 11.9586 18.8239C11.9803 18.6605 11.9153 18.5649 11.7693 18.4773C10.5987 17.7725 9.74112 16.7905 9.21086 15.5279C9.15044 15.3826 9.07832 15.3131 8.91419 15.3231C8.70227 15.3357 8.48854 15.333 8.27662 15.3213C6.82023 15.2427 5.74348 14.555 5.17986 13.2103C4.62616 11.8899 4.86965 10.6508 5.81653 9.56778C6.02755 9.32681 6.36302 9.15443 6.47755 8.88187C6.60019 8.58946 6.52084 8.21492 6.54518 7.87828C6.80039 4.44243 9.28212 1.40279 12.6043 0.478617C13.149 0.326996 13.7135 0.244868 14.269 0.131152C14.7334 0.131152 15.197 0.131152 15.6614 0.131152L15.6641 0.130249ZM9.90255 10.2113C9.89444 10.2555 9.88001 10.3006 9.88001 10.3457C9.88001 11.3132 9.84122 12.2834 9.89082 13.2482C10.0017 15.3971 11.0433 16.972 13.0254 17.8005C14.9508 18.6055 16.7589 18.2589 18.3487 16.9016C18.6779 16.6209 18.9412 16.2626 19.2352 15.9395C19.2163 15.916 19.1973 15.8917 19.1775 15.8682C18.5038 15.8682 17.8293 15.8628 17.1557 15.8763C17.0835 15.8781 16.9888 15.981 16.9473 16.0604C16.6759 16.5721 16.2647 16.9106 15.6957 16.9963C15.3268 17.0523 14.9445 17.0333 14.5675 17.0279C13.7117 17.0162 12.9686 16.3492 12.8785 15.5252C12.7784 14.6083 13.3122 13.7897 14.1852 13.6074C14.5666 13.528 14.9724 13.5451 15.3665 13.5469C16.0771 13.5487 16.6056 13.88 16.932 14.5081C17.0114 14.6606 17.0925 14.7121 17.2585 14.7103C17.9835 14.7021 18.7094 14.6877 19.4327 14.7157C19.742 14.7274 19.8457 14.6173 19.9052 14.3348C20.1821 13.0199 19.9918 11.6932 20.0657 10.3656C19.9629 10.3394 19.8908 10.3132 19.8159 10.3024C18.6598 10.1391 17.5939 9.73384 16.6236 9.08493C16.4766 8.98656 16.3756 8.97212 16.2169 9.0741C14.6532 10.0813 12.9425 10.5154 11.0875 10.3584C10.6952 10.325 10.3066 10.2627 9.89985 10.2113H9.90255ZM20.0612 9.16255C20.0279 8.69956 20.027 8.28351 19.9638 7.87738C19.5571 5.28267 17.1836 3.41267 14.5846 3.62566C11.9072 3.84497 9.85836 6.09222 9.89804 8.75642C9.90075 8.93602 9.95666 9.00371 10.1307 9.04342C11.1245 9.27085 12.1201 9.29522 13.1201 9.10118C14.1707 8.89721 15.1203 8.46762 15.9824 7.83496C16.3116 7.59309 16.5235 7.59489 16.8491 7.82684C16.9356 7.88821 17.0195 7.95409 17.107 8.01456C17.9781 8.61743 18.9331 9.00551 20.0612 9.16165V9.16255ZM22.2742 8.45769C22.1408 5.84674 21.0334 3.75021 18.7789 2.39013C16.1565 0.808033 13.4664 0.869403 10.9071 2.54987C8.80596 3.92981 7.77792 5.96677 7.66159 8.50372C8.04756 8.48116 8.38844 8.4613 8.72932 8.44145C8.75818 8.20138 8.77801 7.99109 8.80867 7.78171C9.4814 3.11665 14.9499 0.862183 18.7049 3.7105C20.1938 4.83954 21.0108 6.35575 21.1821 8.22033C21.1894 8.30246 21.2651 8.44325 21.3165 8.44686C21.6213 8.46852 21.9279 8.45769 22.2742 8.45769ZM8.69594 14.1543V9.63095C7.72471 9.56597 6.93565 9.86019 6.42073 10.6878C5.92203 11.4892 5.92926 12.3249 6.43697 13.12C6.9546 13.9305 7.73914 14.2139 8.69594 14.1543ZM21.2345 14.1254C22.0515 14.2951 22.9858 13.8899 23.479 13.1625C23.9867 12.4125 23.9949 11.4134 23.4971 10.6508C23.011 9.90441 22.1029 9.50189 21.2336 9.65803V14.1263L21.2345 14.1254ZM19.6148 21.7237C18.9845 21.4421 18.3965 21.1758 17.804 20.9204C17.7427 20.8943 17.6246 20.9015 17.5822 20.943C16.9825 21.5305 16.3909 22.1262 15.8255 22.692C16.4559 23.3247 17.0673 23.9384 17.6877 24.5611C18.3154 23.6379 18.9538 22.6966 19.6157 21.7228L19.6148 21.7237ZM14.1184 22.7029C13.7469 22.3328 13.3727 21.9583 12.9966 21.5856C12.7567 21.3482 12.5394 20.9655 12.2652 20.9186C11.9776 20.869 11.6331 21.1379 11.3166 21.2751C10.9856 21.4186 10.6583 21.572 10.3138 21.7273C10.9775 22.7038 11.6169 23.6442 12.2508 24.5765C12.8722 23.9538 13.4782 23.3455 14.1193 22.7029H14.1184ZM13.1201 19.0919C13.1201 19.3871 13.1138 19.628 13.1238 19.8681C13.1274 19.9584 13.1391 20.0757 13.1959 20.1334C13.7721 20.7282 14.3592 21.313 14.9553 21.9132C15.5694 21.2995 16.1574 20.7138 16.7408 20.1244C16.7832 20.082 16.8103 20.0062 16.8121 19.9448C16.8193 19.6759 16.8157 19.406 16.8157 19.0919C15.5811 19.4511 14.3718 19.4529 13.1201 19.0919ZM14.9914 15.8682C15.1356 15.8682 15.2817 15.8781 15.4251 15.8664C15.738 15.8411 15.9581 15.5974 15.959 15.2897C15.9599 14.9819 15.7417 14.7292 15.4287 14.7112C15.1402 14.694 14.8498 14.6949 14.5612 14.7112C14.2465 14.7283 14.0292 14.9765 14.0283 15.2861C14.0283 15.5965 14.2438 15.8393 14.5567 15.8664C14.7001 15.8781 14.8462 15.8682 14.9905 15.8691L14.9914 15.8682Z" fill="#FCFCFC"/>
<path d="M14.9545 29.8616C14.6434 29.8534 14.3873 29.5881 14.3909 29.2767C14.3945 28.9536 14.6759 28.6883 14.9969 28.7054C15.308 28.7217 15.5587 28.9951 15.5461 29.3047C15.5344 29.6161 15.2647 29.8697 14.9545 29.8625V29.8616Z" fill="#FCFCFC"/>
</g>
<defs>
<filter id="filter0_d_0_1" x="-107.169" y="-917" width="417.169" height="1842" filterUnits="userSpaceOnUse" color-interpolation-filters="sRGB">
<feFlood flood-opacity="0" result="BackgroundImageFix"/>
<feColorMatrix in="SourceAlpha" type="matrix" values="0 0 0 0 0 0 0 0 0 0 0 0 0 0 0 0 0 0 127 0" result="hardAlpha"/>
<feOffset dy="20"/>
<feGaussianBlur stdDeviation="25"/>
<feColorMatrix type="matrix" values="0 0 0 0 0 0 0 0 0 0 0 0 0 0 0 0 0 0 0.1 0"/>
<feBlend mode="normal" in2="BackgroundImageFix" result="effect1_dropShadow_0_1"/>
<feBlend mode="normal" in="SourceGraphic" in2="effect1_dropShadow_0_1" result="shape"/>
</filter>
<clipPath id="clip0_0_1">
<rect width="1920" height="1447" fill="white" transform="translate(-66 -873)"/>
</clipPath>
</defs>
</svg>
