<svg width="28" height="28" viewBox="0 0 28 28" fill="none" xmlns="http://www.w3.org/2000/svg">
<rect width="28" height="28" fill="#F5F5F5"/>
<g clip-path="url(#clip0_0_1)">
<rect width="1920" height="1447" transform="translate(-68 -171)" fill="white"/>
<g filter="url(#filter0_d_0_1)">
<path d="M-59.1687 -175C-59.1687 -180.523 -54.6915 -185 -49.1687 -185H248C253.523 -185 258 -180.523 258 -175V1547C258 1552.52 253.523 1557 248 1557H-49.1687C-54.6916 1557 -59.1687 1552.52 -59.1687 1547V-175Z" fill="#094C89"/>
</g>
<path d="M27.887 18.363C27.887 18.2462 27.8606 18.1294 27.8342 18.0126L22.6015 0.943294C22.4257 0.386296 21.9156 0 21.3439 0H7.18491C6.60445 0 6.09441 0.386296 5.92732 0.943294L0.694626 18.0126C0.659466 18.1474 0.64186 18.2821 0.633057 18.4169V26.5023C0.633057 27.2479 1.22227 27.8499 1.95222 27.8499H26.5766C27.3066 27.8499 27.8958 27.2479 27.8958 26.5023C27.887 26.4484 27.9046 18.4079 27.887 18.363ZM18.6616 17.0693C17.9317 17.0693 17.3425 17.6712 17.3425 18.4169C17.2369 22.5584 11.2919 22.5674 11.1864 18.4169C11.1864 17.6712 10.5972 17.0693 9.8672 17.0693H3.74626L8.15228 2.69515H20.3765L24.7826 17.0693H18.6616Z" fill="#FCFCFC"/>
</g>
<defs>
<filter id="filter0_d_0_1" x="-109.169" y="-215" width="417.169" height="1842" filterUnits="userSpaceOnUse" color-interpolation-filters="sRGB">
<feFlood flood-opacity="0" result="BackgroundImageFix"/>
<feColorMatrix in="SourceAlpha" type="matrix" values="0 0 0 0 0 0 0 0 0 0 0 0 0 0 0 0 0 0 127 0" result="hardAlpha"/>
<feOffset dy="20"/>
<feGaussianBlur stdDeviation="25"/>
<feColorMatrix type="matrix" values="0 0 0 0 0 0 0 0 0 0 0 0 0 0 0 0 0 0 0.1 0"/>
<feBlend mode="normal" in2="BackgroundImageFix" result="effect1_dropShadow_0_1"/>
<feBlend mode="normal" in="SourceGraphic" in2="effect1_dropShadow_0_1" result="shape"/>
</filter>
<clipPath id="clip0_0_1">
<rect width="1920" height="1447" fill="white" transform="translate(-68 -171)"/>
</clipPath>
</defs>
</svg>
