<svg width="31" height="21" viewBox="0 0 31 21" fill="none" xmlns="http://www.w3.org/2000/svg">
<rect width="31" height="21" fill="#F5F5F5"/>
<g clip-path="url(#clip0_0_1)">
<rect width="1920" height="1447" transform="translate(-66 -821)" fill="white"/>
<g filter="url(#filter0_d_0_1)">
<path d="M-57.1687 -825C-57.1687 -830.523 -52.6915 -835 -47.1687 -835H250C255.523 -835 260 -830.523 260 -825V897C260 902.523 255.523 907 250 907H-47.1687C-52.6916 907 -57.1687 902.523 -57.1687 897V-825Z" fill="#094C89"/>
</g>
<path d="M30.6646 16.7568C30.5205 17.0263 30.29 17.1072 29.9951 17.0979C29.55 17.0838 29.1043 17.0945 28.6352 17.0945C28.5869 18.0902 28.2183 18.9081 27.4415 19.5133C26.8631 19.964 26.1995 20.1713 25.4676 20.1465C24.2016 20.1031 22.6654 19.1602 22.5374 17.1173H11.7814C11.7338 18.1491 11.3236 18.997 10.4711 19.6009C9.89065 20.0121 9.2365 20.1907 8.52806 20.1418C7.25663 20.0549 5.80892 19.098 5.68828 17.0952C5.58707 17.0952 5.48184 17.0952 5.37728 17.0952C4.6608 17.0952 3.94431 17.0986 3.22783 17.0939C2.53346 17.0899 2.13468 16.6913 2.12864 16.0032C2.12596 15.6976 2.12864 15.3914 2.12864 15.049C1.6454 15.049 1.19031 15.0516 0.73522 15.0476C0.617258 15.0463 0.459088 15.0677 0.389384 15.0035C0.262709 14.8865 0.110559 14.7113 0.11458 14.5642C0.118601 14.4184 0.282137 14.2532 0.414174 14.1429C0.489911 14.08 0.642736 14.0981 0.760697 14.0974C2.1635 14.0947 3.56697 14.0954 4.96977 14.0961C5.03948 14.0961 5.10986 14.0934 5.17822 14.1021C5.46173 14.1355 5.64872 14.3361 5.64001 14.5916C5.6313 14.8497 5.43962 15.0396 5.14807 15.045C4.58104 15.0543 4.01334 15.049 3.44632 15.049C3.33909 15.049 3.23186 15.049 3.10451 15.049V16.1416C3.44298 16.1416 3.76872 16.1416 4.09378 16.1416C4.61121 16.1416 5.12862 16.135 5.64605 16.1457C5.81092 16.149 5.88466 16.0915 5.95369 15.9424C6.5053 14.7601 7.44161 14.1048 8.7479 14.1101C10.0395 14.1148 10.9711 14.7608 11.5167 15.935C11.5837 16.0788 11.652 16.1463 11.8216 16.1463C14.9959 16.141 18.1708 16.1423 21.345 16.1416C21.3933 16.1416 21.4415 16.1343 21.5173 16.1283C21.5226 16.0132 21.5307 15.9083 21.5313 15.8033C21.5327 14.7608 21.5206 13.7176 21.5427 12.6757C21.5467 12.4932 21.6433 12.2538 21.78 12.1448C22.0756 11.9081 22.4811 12.1682 22.4864 12.5808C22.4951 13.3057 22.4891 14.0305 22.4891 14.7554C22.4891 15.1326 22.4837 15.5104 22.4931 15.8875C22.4951 15.9711 22.5501 16.054 22.5809 16.137C22.6533 16.0728 22.7565 16.0233 22.7941 15.943C23.2136 15.0423 23.8886 14.4391 24.8571 14.195C26.2826 13.8353 27.7283 14.5347 28.3396 15.8782C28.4314 16.0794 28.5313 16.165 28.7572 16.1483C29.0614 16.1263 29.3691 16.143 29.6908 16.143V14.0279C29.4864 14.0279 29.2907 14.0352 29.095 14.0265C28.3034 13.9904 27.6948 13.3752 27.672 12.5855C27.6627 12.2478 27.664 11.9101 27.6707 11.5724C27.6774 11.2186 27.8497 11.0474 28.2089 11.0421C28.6647 11.0354 29.1204 11.0401 29.5795 11.0401C29.4937 10.5051 28.9234 9.9842 28.3181 9.97751C26.3892 9.95477 24.4603 9.96881 22.4884 9.96881C22.4884 10.1467 22.4938 10.3119 22.4871 10.4764C22.475 10.7806 22.2827 10.9786 22.0099 10.9759C21.7512 10.9732 21.5602 10.7826 21.5354 10.4971C21.528 10.4082 21.5327 10.3185 21.5327 10.2289C21.5327 7.5481 21.5327 4.86659 21.5327 2.18575V1.81997H3.08373C3.08373 1.94301 3.08373 2.05869 3.08373 2.17371C3.08373 4.86458 3.08373 7.55612 3.08373 10.247C3.08373 10.346 3.08842 10.4463 3.07769 10.5446C3.05155 10.7967 2.90009 10.9451 2.65546 10.9705C2.40814 10.9959 2.23052 10.8716 2.16014 10.6328C2.1273 10.5218 2.12864 10.3981 2.12797 10.2798C2.12663 7.52938 2.12663 4.77832 2.12663 2.02793C2.12663 1.21947 2.5013 0.850342 3.31764 0.850342C9.31827 0.850342 15.3189 0.850342 21.3195 0.850342C22.1211 0.850342 22.4871 1.21546 22.4884 2.01255C22.4884 2.28873 22.4884 2.5649 22.4884 2.86983C22.6158 2.87585 22.7217 2.88455 22.8269 2.88455C23.8517 2.88588 24.8771 2.90528 25.9019 2.87986C27.1935 2.84777 28.3121 3.73982 28.0869 5.47912C28.0661 5.63761 27.8972 5.77603 27.7585 5.98065C27.9864 6.89076 28.231 7.88112 28.487 8.86879C28.5065 8.94503 28.5956 9.03998 28.67 9.05938C29.7384 9.33488 30.3865 10.0063 30.6218 11.0802C30.6278 11.1076 30.6492 11.1317 30.664 11.1578V16.7595L30.6646 16.7568ZM27.5139 8.99384C27.4924 8.89153 27.4777 8.80594 27.4562 8.72168C27.2471 7.8751 27.0273 7.03119 26.8316 6.18126C26.7759 5.93919 26.6667 5.877 26.4274 5.87901C25.2243 5.89172 24.0206 5.88503 22.8175 5.88503C22.7203 5.88503 22.6231 5.88503 22.5146 5.88503V8.99317H27.5132L27.5139 8.99384ZM25.5789 19.1956C26.7116 19.2016 27.6526 18.2775 27.668 17.1434C27.6834 16.0059 26.733 15.0516 25.5876 15.055C24.4516 15.0583 23.5159 15.9892 23.5132 17.12C23.5105 18.2481 24.4475 19.1889 25.5789 19.195V19.1956ZM8.75327 19.1956C9.88664 19.1883 10.8169 18.2494 10.8129 17.1173C10.8089 15.9825 9.87659 15.0563 8.73853 15.055C7.59175 15.0543 6.6514 16.0019 6.66279 17.1467C6.67418 18.2761 7.6199 19.203 8.75327 19.1956ZM22.5072 4.90404H27.1265C27.1493 4.29016 26.6982 3.84681 26.0447 3.8428C24.9314 3.83611 23.8182 3.84013 22.7049 3.8428C22.6392 3.8428 22.5729 3.86152 22.5072 3.87155V4.90404ZM29.6854 13.0582V12.0171H28.6446C28.5628 12.9639 28.729 13.1298 29.6854 13.0582Z" fill="#FCFCFC"/>
<path d="M11.7822 9.8479C13.0999 8.53189 14.3653 7.26737 15.6313 6.00285C15.7647 5.8691 15.8947 5.73202 16.0335 5.60363C16.2634 5.39165 16.5288 5.38229 16.7265 5.57019C16.9282 5.76278 16.9282 6.05434 16.701 6.28303C15.9457 7.04603 15.1829 7.80166 14.4236 8.56065C13.699 9.28419 12.9745 10.0077 12.2486 10.7299C11.9108 11.0656 11.6964 11.0663 11.3626 10.7339C10.5731 9.94888 9.78754 9.15981 8.99666 8.37608C8.83111 8.21158 8.71919 8.03638 8.80364 7.79431C8.92495 7.44591 9.33379 7.36968 9.62602 7.65522C10.2581 8.27444 10.8814 8.90235 11.506 9.52826C11.5965 9.61854 11.6743 9.72152 11.7822 9.84724V9.8479Z" fill="#FCFCFC"/>
<path d="M16.3811 15.0482C15.2665 15.0482 14.1526 15.0482 13.038 15.0482C12.9388 15.0482 12.8376 15.0509 12.7404 15.0362C12.4998 14.9994 12.3698 14.8389 12.351 14.6116C12.3322 14.3815 12.4449 14.2023 12.6734 14.1348C12.7947 14.0993 12.9288 14.0973 13.0568 14.0973C15.2853 14.0953 17.5145 14.096 19.7431 14.096C19.7732 14.096 19.8027 14.096 19.8329 14.096C20.2256 14.1027 20.4562 14.2859 20.4502 14.5855C20.4441 14.8784 20.2283 15.0476 19.8443 15.0482C18.6901 15.0502 17.536 15.0489 16.3818 15.0489L16.3811 15.0482Z" fill="#FCFCFC"/>
<path d="M4.65677 13.0094C3.67219 13.0094 2.68761 13.0107 1.7037 13.0094C1.32703 13.0094 1.10921 12.8308 1.11122 12.5346C1.11323 12.2437 1.33977 12.0585 1.71041 12.0578C3.67956 12.0558 5.64804 12.0578 7.6172 12.0558C7.84307 12.0558 8.05755 12.1093 8.13195 12.3293C8.17887 12.4697 8.17752 12.6951 8.09307 12.7927C7.98851 12.9137 7.77739 12.9973 7.6105 13.0007C6.6266 13.0194 5.64201 13.01 4.65744 13.01L4.65677 13.0094Z" fill="#FCFCFC"/>
<path d="M25.5783 16.1434C26.1299 16.138 26.5709 16.566 26.5783 17.1123C26.5856 17.65 26.1413 18.1047 25.6011 18.1134C25.0649 18.1221 24.6104 17.6767 24.6024 17.1351C24.5944 16.5901 25.0287 16.148 25.5783 16.1427V16.1434Z" fill="#FCFCFC"/>
<path d="M8.73452 16.1434C9.28747 16.1414 9.7191 16.57 9.72044 17.121C9.72178 17.668 9.28344 18.112 8.74054 18.1134C8.2057 18.1147 7.74928 17.6613 7.74659 17.1264C7.74391 16.5854 8.18694 16.1447 8.73452 16.1427V16.1434Z" fill="#FCFCFC"/>
</g>
<defs>
<filter id="filter0_d_0_1" x="-107.169" y="-865" width="417.169" height="1842" filterUnits="userSpaceOnUse" color-interpolation-filters="sRGB">
<feFlood flood-opacity="0" result="BackgroundImageFix"/>
<feColorMatrix in="SourceAlpha" type="matrix" values="0 0 0 0 0 0 0 0 0 0 0 0 0 0 0 0 0 0 127 0" result="hardAlpha"/>
<feOffset dy="20"/>
<feGaussianBlur stdDeviation="25"/>
<feColorMatrix type="matrix" values="0 0 0 0 0 0 0 0 0 0 0 0 0 0 0 0 0 0 0.1 0"/>
<feBlend mode="normal" in2="BackgroundImageFix" result="effect1_dropShadow_0_1"/>
<feBlend mode="normal" in="SourceGraphic" in2="effect1_dropShadow_0_1" result="shape"/>
</filter>
<clipPath id="clip0_0_1">
<rect width="1920" height="1447" fill="white" transform="translate(-66 -821)"/>
</clipPath>
</defs>
</svg>
