<svg width="29" height="30" viewBox="0 0 29 30" fill="none" xmlns="http://www.w3.org/2000/svg">
<rect width="29" height="30" fill="#F5F5F5"/>
<g clip-path="url(#clip0_0_1)">
<rect width="1920" height="1447" transform="translate(-66 -927)" fill="white"/>
<g filter="url(#filter0_d_0_1)">
<path d="M-57.1687 -931C-57.1687 -936.523 -52.6915 -941 -47.1687 -941H250C255.523 -941 260 -936.523 260 -931V791C260 796.523 255.523 801 250 801H-47.1687C-52.6916 801 -57.1687 796.523 -57.1687 791V-931Z" fill="#094C89"/>
</g>
<path d="M0.114502 26.8673C0.114502 23.132 0.114502 19.3974 0.114502 15.662C0.129115 15.639 0.151416 15.6183 0.156031 15.5937C0.292159 14.8479 0.700546 14.2862 1.30659 13.8427C2.23487 13.1628 3.14932 12.463 4.07684 11.7801C4.24835 11.6543 4.32141 11.5246 4.32064 11.3043C4.31218 8.7476 4.31372 6.19009 4.31526 3.63334C4.31602 1.97514 5.42735 0.869421 7.09166 0.869421C11.8777 0.868653 16.663 0.869421 21.449 0.869421C23.1471 0.869421 24.2446 1.96824 24.2454 3.66941C24.2461 6.22615 24.2477 8.78367 24.2415 11.3404C24.2415 11.5269 24.3008 11.642 24.4484 11.7509C25.4336 12.4791 26.4157 13.2112 27.3917 13.9509C28.0547 14.4535 28.4354 15.1303 28.4392 15.959C28.4538 19.5002 28.4592 23.0414 28.4361 26.5827C28.4292 27.6132 27.9024 28.3821 26.9787 28.8517C26.7295 28.9783 26.4457 29.0397 26.1781 29.131H2.38331C2.32332 29.1118 2.2641 29.0895 2.20334 29.075C1.25506 28.8455 0.601334 28.2823 0.262935 27.3653C0.202946 27.2034 0.163724 27.0339 0.114502 26.8681V26.8673ZM14.2803 1.91452C11.8738 1.91452 9.46737 1.91299 7.06013 1.91452C6.01571 1.91529 5.36583 2.55985 5.36583 3.59728C5.36429 7.76388 5.36737 11.9305 5.35968 16.0971C5.35968 16.3066 5.42505 16.3979 5.61578 16.4754C8.24068 17.5427 10.8648 18.6116 13.482 19.6982C14.0296 19.9253 14.5349 19.9253 15.0809 19.6982C17.6897 18.617 20.3053 17.5496 22.9226 16.4884C23.1387 16.401 23.2017 16.2943 23.201 16.0687C23.194 11.9297 23.1963 7.79074 23.1956 3.65099C23.1956 2.53913 22.5642 1.91299 21.4444 1.91299C19.0563 1.91222 16.6676 1.91299 14.2796 1.91299L14.2803 1.91452ZM1.16507 15.7794C1.16507 15.9521 1.16507 16.0679 1.16507 16.1838C1.16507 19.5869 1.16507 22.99 1.16507 26.3931C1.16507 27.4283 1.81803 28.082 2.8563 28.0828C10.4726 28.0843 18.0881 28.0843 25.7043 28.0828C26.7426 28.0828 27.3956 27.4283 27.3956 26.3939C27.3963 22.9908 27.3956 19.5877 27.3956 16.1846C27.3956 16.0695 27.3956 15.9536 27.3956 15.7833C24.6307 16.9158 21.9204 18.0262 19.124 19.1718C19.2571 19.2685 19.3486 19.3183 19.4201 19.3889C20.9283 20.8891 22.4342 22.3923 23.9401 23.8947C24.0116 23.9661 24.0869 24.0359 24.1454 24.1172C24.3007 24.3336 24.2708 24.6168 24.0831 24.7956C23.9024 24.9674 23.6324 24.9912 23.4232 24.8431C23.3417 24.7848 23.2717 24.7096 23.1994 24.6382C21.569 23.013 19.937 21.3886 18.3126 19.7573C18.175 19.6191 18.0696 19.5969 17.8896 19.6736C17.0513 20.0289 16.2046 20.365 15.3624 20.7134C14.6356 21.0134 13.9165 21.0149 13.189 20.7087C12.3584 20.3588 11.517 20.032 10.6879 19.6782C10.4964 19.5961 10.388 19.6153 10.2411 19.7634C8.61676 21.3955 6.98476 23.0192 5.35429 24.6444C5.28277 24.7157 5.21201 24.7909 5.12972 24.8477C4.91899 24.9935 4.64904 24.9667 4.47138 24.7917C4.28526 24.6091 4.25911 24.329 4.41755 24.1134C4.47676 24.0328 4.5529 23.963 4.62443 23.8916C6.1303 22.3892 7.63618 20.886 9.14436 19.3859C9.21434 19.316 9.31048 19.2708 9.45122 19.1756C6.63713 18.0231 3.92687 16.9128 1.16354 15.781L1.16507 15.7794ZM24.2608 12.9119V15.9337C25.1337 15.5761 25.9812 15.2292 26.8695 14.8655C25.9935 14.2095 25.1491 13.5764 24.2608 12.9119ZM1.69651 14.8648C2.5825 15.2277 3.43004 15.5738 4.29064 15.926V12.9226C3.41312 13.5795 2.56866 14.2118 1.69651 14.8648Z" fill="#FCFCFC"/>
<path d="M20.06 5.05998C20.2445 5.05998 20.4007 5.05537 20.556 5.06074C20.876 5.07149 21.0882 5.27483 21.0928 5.56948C21.0967 5.86491 20.8929 6.08513 20.5753 6.10048C20.2722 6.11506 19.9669 6.10355 19.6631 6.10892C19.2393 6.11582 19.014 6.28924 19.0032 6.60922C18.9925 6.92306 19.2293 7.12947 19.6316 7.15709C20.2915 7.20313 20.8452 7.64204 21.0321 8.26742C21.2467 8.98641 20.9398 9.74299 20.2653 10.0937C20.0876 10.1857 20.0284 10.2901 20.0446 10.475C20.0561 10.6024 20.0515 10.7329 20.04 10.8602C20.0153 11.1296 19.8131 11.3199 19.5508 11.3329C19.3055 11.3452 19.084 11.1825 19.0255 10.9331C19.0025 10.8364 19.0032 10.7329 18.9986 10.6323C18.9948 10.5326 18.9979 10.4328 18.9979 10.2924C18.8256 10.2924 18.6725 10.2985 18.5202 10.2909C18.1711 10.2732 17.9411 10.0461 17.9557 9.74223C17.9703 9.4422 18.1903 9.25574 18.5387 9.24883C18.8702 9.24269 19.2024 9.25114 19.5331 9.22888C19.8715 9.20663 20.0523 9.00406 20.0438 8.70019C20.0353 8.41628 19.8462 8.21677 19.5254 8.20296C18.3672 8.15462 17.7119 7.07269 18.0403 6.11966C18.1749 5.72832 18.4226 5.42293 18.794 5.2449C18.9702 5.1605 19.0117 5.05614 19.0009 4.88426C18.9917 4.73847 18.9925 4.58807 19.0171 4.44535C19.0648 4.1645 19.2963 3.99339 19.5693 4.01487C19.8285 4.03482 20.02 4.22973 20.0423 4.50213C20.05 4.59344 20.0446 4.68552 20.0477 4.7776C20.05 4.85894 20.0553 4.94027 20.0607 5.05998H20.06Z" fill="#FCFCFC"/>
<path d="M11.1378 7.15376C12.1515 7.15376 13.1651 7.15299 14.178 7.15376C14.5695 7.15376 14.7925 7.34175 14.7971 7.66327C14.801 7.99398 14.568 8.19733 14.1673 8.19733C12.1399 8.19963 10.1134 8.19963 8.08609 8.19733C7.69924 8.19733 7.47236 8.00012 7.46775 7.67938C7.46236 7.34559 7.68847 7.15376 8.09763 7.15376C9.11128 7.15222 10.1249 7.15376 11.1378 7.15376Z" fill="#FCFCFC"/>
<path d="M11.1325 14.4782C10.1189 14.4782 9.10597 14.4812 8.09231 14.4766C7.69546 14.4751 7.4755 14.2863 7.46781 13.9664C7.46166 13.6978 7.63163 13.4868 7.89927 13.4461C8.00771 13.4292 8.11923 13.4308 8.22998 13.4308C10.165 13.43 12.0993 13.4308 14.0343 13.4308C14.1173 13.4308 14.2004 13.4292 14.2827 13.4361C14.5972 13.4622 14.7903 13.6533 14.7972 13.9395C14.8041 14.2365 14.608 14.4475 14.2827 14.472C14.0904 14.4866 13.8958 14.4789 13.7028 14.4789C12.846 14.4789 11.9893 14.4789 11.1325 14.4789V14.4782Z" fill="#FCFCFC"/>
<path d="M10.615 10.2939C11.4717 10.2939 12.3285 10.2893 13.186 10.2962C13.5836 10.2992 13.8182 10.5877 13.7321 10.9423C13.6705 11.1955 13.4729 11.3344 13.1429 11.3359C12.36 11.3397 11.5763 11.3374 10.7934 11.3374C9.89048 11.3374 8.98757 11.3397 8.08466 11.3359C7.72011 11.3344 7.50016 11.1625 7.47016 10.8732C7.43555 10.5325 7.66089 10.2977 8.04467 10.2954C8.90143 10.2908 9.7582 10.2939 10.6157 10.2939H10.615Z" fill="#FCFCFC"/>
<path d="M10.6286 4.01018C11.4576 4.01018 12.2875 4.00864 13.1166 4.01018C13.5165 4.01094 13.7549 4.21275 13.7495 4.5381C13.7449 4.85271 13.5088 5.05605 13.1289 5.05682C11.4515 5.05912 9.77411 5.05912 8.09673 5.05682C7.69296 5.05682 7.463 4.85654 7.46684 4.52275C7.47069 4.19357 7.69757 4.01018 8.11211 4.00941C8.95041 4.00788 9.78949 4.00941 10.6278 4.00941L10.6286 4.01018Z" fill="#FCFCFC"/>
</g>
<defs>
<filter id="filter0_d_0_1" x="-107.169" y="-971" width="417.169" height="1842" filterUnits="userSpaceOnUse" color-interpolation-filters="sRGB">
<feFlood flood-opacity="0" result="BackgroundImageFix"/>
<feColorMatrix in="SourceAlpha" type="matrix" values="0 0 0 0 0 0 0 0 0 0 0 0 0 0 0 0 0 0 127 0" result="hardAlpha"/>
<feOffset dy="20"/>
<feGaussianBlur stdDeviation="25"/>
<feColorMatrix type="matrix" values="0 0 0 0 0 0 0 0 0 0 0 0 0 0 0 0 0 0 0.1 0"/>
<feBlend mode="normal" in2="BackgroundImageFix" result="effect1_dropShadow_0_1"/>
<feBlend mode="normal" in="SourceGraphic" in2="effect1_dropShadow_0_1" result="shape"/>
</filter>
<clipPath id="clip0_0_1">
<rect width="1920" height="1447" fill="white" transform="translate(-66 -927)"/>
</clipPath>
</defs>
</svg>
