<svg width="33" height="32" viewBox="0 0 33 32" fill="none" xmlns="http://www.w3.org/2000/svg">
<rect width="33" height="32" fill="#F5F5F5"/>
<g id="products" clip-path="url(#clip0_0_1)">
<rect width="1920" height="1447" transform="translate(-1352 -48)" fill="white"/>
<path id="Vector" opacity="0.5" d="M666 -99H-1038V1402H666V-99Z" fill="url(#paint0_linear_0_1)"/>
<g id="topmenu" filter="url(#filter0_d_0_1)">
<g id="Search Bar" filter="url(#filter1_d_0_1)">
<rect x="-31.6023" y="-18" width="316.528" height="68" rx="12" fill="#FCFCFC"/>
<g id="Frame 3">
<g id="magnifier">
<path id="XMLID 223" d="M27.8117 24.586L22.7347 19.509C23.7837 17.928 24.3977 16.035 24.3977 14C24.3977 8.486 19.9117 4 14.3977 4C8.88371 4 4.39771 8.486 4.39771 14C4.39771 19.514 8.88371 24 14.3977 24C16.4327 24 18.3257 23.386 19.9067 22.337L24.9837 27.414C25.7637 28.195 27.0317 28.195 27.8117 27.414C28.5927 26.633 28.5927 25.367 27.8117 24.586ZM7.39771 14C7.39771 10.14 10.5377 7 14.3977 7C18.2577 7 21.3977 10.14 21.3977 14C21.3977 17.86 18.2577 21 14.3977 21C10.5377 21 7.39771 17.86 7.39771 14Z" fill="#979797"/>
</g>
</g>
</g>
</g>
</g>
<defs>
<filter id="filter0_d_0_1" x="-930.724" y="-18" width="1431.72" height="76" filterUnits="userSpaceOnUse" color-interpolation-filters="sRGB">
<feFlood flood-opacity="0" result="BackgroundImageFix"/>
<feColorMatrix in="SourceAlpha" type="matrix" values="0 0 0 0 0 0 0 0 0 0 0 0 0 0 0 0 0 0 127 0" result="hardAlpha"/>
<feOffset dy="4"/>
<feGaussianBlur stdDeviation="2"/>
<feComposite in2="hardAlpha" operator="out"/>
<feColorMatrix type="matrix" values="0 0 0 0 0 0 0 0 0 0 0 0 0 0 0 0 0 0 0.25 0"/>
<feBlend mode="normal" in2="BackgroundImageFix" result="effect1_dropShadow_0_1"/>
<feBlend mode="normal" in="SourceGraphic" in2="effect1_dropShadow_0_1" result="shape"/>
</filter>
<filter id="filter1_d_0_1" x="-81.6023" y="-48" width="416.528" height="168" filterUnits="userSpaceOnUse" color-interpolation-filters="sRGB">
<feFlood flood-opacity="0" result="BackgroundImageFix"/>
<feColorMatrix in="SourceAlpha" type="matrix" values="0 0 0 0 0 0 0 0 0 0 0 0 0 0 0 0 0 0 127 0" result="hardAlpha"/>
<feOffset dy="20"/>
<feGaussianBlur stdDeviation="25"/>
<feColorMatrix type="matrix" values="0 0 0 0 0 0 0 0 0 0 0 0 0 0 0 0 0 0 0.1 0"/>
<feBlend mode="normal" in2="BackgroundImageFix" result="effect1_dropShadow_0_1"/>
<feBlend mode="normal" in="SourceGraphic" in2="effect1_dropShadow_0_1" result="shape"/>
</filter>
<linearGradient id="paint0_linear_0_1" x1="175.808" y1="1752.88" x2="-1178.28" y2="192.066" gradientUnits="userSpaceOnUse">
<stop stop-color="#E5FFFF"/>
<stop offset="0.1" stop-color="#E5FFFF"/>
<stop offset="0.62" stop-color="#F8FFFF"/>
<stop offset="0.98" stop-color="white"/>
</linearGradient>
<clipPath id="clip0_0_1">
<rect width="1920" height="1447" fill="white" transform="translate(-1352 -48)"/>
</clipPath>
</defs>
</svg>
