<svg width="31" height="32" viewBox="0 0 31 32" fill="none" xmlns="http://www.w3.org/2000/svg">
<rect width="31" height="32" fill="#F5F5F5"/>
<g clip-path="url(#clip0_0_1)">
<rect width="1920" height="1447" transform="translate(-66 -490)" fill="white"/>
<g filter="url(#filter0_d_0_1)">
<path d="M-57.1687 -494C-57.1687 -499.523 -52.6915 -504 -47.1687 -504H250C255.523 -504 260 -499.523 260 -494V1228C260 1233.52 255.523 1238 250 1238H-47.1687C-52.6916 1238 -57.1687 1233.52 -57.1687 1228V-494Z" fill="#094C89"/>
</g>
<path d="M2.66973 17.2701V27.4154H15.864C15.864 27.2945 15.864 27.1816 15.864 27.0687C15.864 25.5662 15.866 24.0626 15.8621 22.5601C15.8621 22.2768 15.9472 22.055 16.2382 21.9738C16.5964 21.8737 16.8765 22.1233 16.8775 22.5443C16.8815 23.8249 16.8785 25.1056 16.8785 26.3863C16.8785 26.723 16.8785 27.0598 16.8785 27.4352C17.2031 27.4352 17.5059 27.4312 17.8087 27.4352C18.2066 27.4411 18.3976 27.6243 18.3996 28.0156C18.4016 28.4385 18.4303 28.8674 18.3729 29.2834C18.1898 30.6126 17.1437 31.497 15.7799 31.498C11.4323 31.501 7.08565 31.5 2.73801 31.498C2.55987 31.498 2.37874 31.4832 2.20258 31.4505C1.00012 31.2286 0.144076 30.2203 0.119334 29.0001C0.112406 28.6722 0.113396 28.3434 0.119334 28.0156C0.126261 27.6233 0.312318 27.4431 0.711157 27.4352C0.996183 27.4302 1.28219 27.4302 1.56722 27.4272C1.57711 27.4272 1.58602 27.4213 1.64144 27.4025V27.0519C1.64144 23.6962 1.64144 20.3415 1.64144 16.9858C1.64144 16.4004 1.78693 16.2529 2.36886 16.2529C3.83952 16.2529 5.30916 16.2548 6.77982 16.2509C7.04901 16.2509 7.26279 16.3301 7.35681 16.5995C7.4825 16.9591 7.22321 17.2661 6.79171 17.2681C5.54373 17.272 4.29574 17.2691 3.04776 17.2691C2.93296 17.2691 2.81719 17.2691 2.66973 17.2691V17.2701ZM1.13472 28.4623C1.13472 28.6524 1.13175 28.8099 1.13472 28.9674C1.15154 29.6984 1.62165 30.3174 2.34016 30.4343C2.7677 30.5036 3.21602 30.4471 3.67423 30.4471C3.67423 30.2857 3.66533 30.1272 3.67622 29.9707C3.69601 29.6696 3.90878 29.4666 4.18589 29.4706C4.46201 29.4735 4.66789 29.6786 4.6857 29.9816C4.6956 30.1451 4.68768 30.3095 4.68768 30.468H13.8233C13.8599 30.0599 13.7016 29.4933 14.332 29.4874C14.9862 29.4805 14.8021 30.0767 14.8664 30.462C16.6835 30.6433 17.6237 29.8826 17.3456 28.4633H1.13472V28.4623Z" fill="#FCFCFC"/>
<path d="M8.98384 18.2212C9.37476 18.8986 9.75483 19.5553 10.1349 20.213C10.1873 20.3041 10.2437 20.3952 10.2882 20.4903C10.4179 20.7686 10.3397 21.0459 10.0992 21.1797C9.8597 21.3124 9.56775 21.244 9.41039 20.9865C9.12933 20.526 8.86806 20.0545 8.59788 19.588C8.45041 19.3334 8.30096 19.0789 8.13469 18.7927C7.50229 19.1651 6.86993 19.5048 6.27316 19.9C5.86937 20.1674 5.77237 20.7181 6.00989 21.1529C6.33945 21.7561 6.68187 22.3524 7.04112 22.9377C7.33208 23.4112 7.87544 23.5429 8.37423 23.2973C8.38413 23.2923 8.39302 23.2883 8.40192 23.2824C10.4783 21.8789 12.8822 21.2272 15.1772 20.3269C16.3658 19.8604 17.5683 19.4265 18.8004 18.965C18.7381 18.8511 18.6856 18.753 18.6312 18.6579C17.982 17.5318 17.3318 16.4047 16.6816 15.2785C16.6499 15.224 16.6133 15.1715 16.5846 15.1151C16.4341 14.8209 16.4994 14.5446 16.7518 14.396C16.9973 14.2514 17.2951 14.3267 17.4594 14.602C17.8167 15.2012 18.1611 15.8084 18.5095 16.4136C18.9687 17.2109 19.4279 18.0072 19.8851 18.8055C20.1681 19.2998 20.0771 19.5553 19.5486 19.7544C17.1962 20.6399 14.8437 21.5233 12.4912 22.4088C12.3735 22.4534 12.2557 22.499 12.1043 22.5574C12.419 23.1111 12.7357 23.6419 13.0286 24.1867C13.47 25.0078 13.1227 25.9923 12.2844 26.337C11.5798 26.6272 10.7979 26.3657 10.3882 25.6853C10.0448 25.1158 9.72019 24.5343 9.36787 23.9262C8.39403 24.5868 7.42909 24.6978 6.48593 23.8658C6.29987 23.9678 6.11872 24.0758 5.93068 24.1689C5.17556 24.5452 4.30071 24.2867 3.89494 23.5726C3.4872 22.8555 3.71781 21.977 4.43433 21.5214C4.49668 21.4818 4.55804 21.4372 4.62633 21.4104C4.89057 21.3084 4.94895 21.1549 4.91332 20.8528C4.82524 20.105 5.12612 19.4909 5.72487 19.0294C5.76644 18.9967 5.80895 18.963 5.85646 18.9402C8.05354 17.8725 9.8112 16.2026 11.6767 14.6813C12.8079 13.7581 13.9292 12.8231 15.0555 11.8941C15.4603 11.5603 15.7493 11.6088 16.0115 12.0516C16.1521 12.2883 16.2936 12.524 16.4242 12.7657C16.5875 13.0698 16.5143 13.3659 16.252 13.5085C15.9967 13.6482 15.7324 13.563 15.5484 13.2827C15.486 13.1876 15.4286 13.0906 15.3504 12.9658C13.2197 14.7248 11.1107 16.4651 8.98684 18.2182L8.98384 18.2212ZM10.2437 23.431C10.593 24.0381 10.9177 24.6166 11.2591 25.1851C11.4155 25.4456 11.7025 25.5109 11.946 25.3753C12.1944 25.2366 12.2725 24.9454 12.1181 24.6591C11.937 24.3254 11.7401 24.0005 11.5481 23.6717C11.4076 23.43 11.2651 23.1883 11.1146 22.9328C10.8108 23.1071 10.5465 23.2576 10.2437 23.431ZM5.38738 22.1315C5.08157 22.3326 4.67579 22.4029 4.70548 22.8327C4.71637 22.9882 4.85692 23.2002 4.99547 23.2695C5.34285 23.4409 5.59719 23.1744 5.8842 22.9942C5.71694 22.705 5.56055 22.4346 5.38636 22.1315H5.38738Z" fill="#FCFCFC"/>
<path d="M30.593 5.58031C30.593 6.55394 30.595 7.52756 30.593 8.50217C30.591 9.52037 29.9656 10.1543 28.9571 10.1553C27.0005 10.1572 25.0429 10.1572 23.0863 10.1553C22.0917 10.1543 21.4544 9.52136 21.4524 8.53288C21.4494 7.59095 21.4504 6.64902 21.4524 5.70709C21.4524 5.30695 21.6444 5.07518 21.9611 5.07617C22.2778 5.07716 22.4658 5.30992 22.4668 5.71105C22.4688 6.64209 22.4658 7.57411 22.4678 8.50514C22.4688 8.95976 22.6469 9.13805 23.1032 9.13904C25.0498 9.14102 26.9955 9.14102 28.9422 9.13904C29.3975 9.13904 29.5766 8.95977 29.5766 8.50415C29.5786 6.55691 29.5786 4.60867 29.5766 2.66143C29.5766 2.20384 29.3985 2.02555 28.9442 2.02456C26.9975 2.02258 25.0518 2.02258 23.1051 2.02456C22.6459 2.02456 22.4708 2.20086 22.4668 2.65449C22.4639 2.94074 22.4727 3.22599 22.4638 3.51223C22.4539 3.8371 22.2491 4.05203 21.9621 4.05402C21.6741 4.056 21.4623 3.84305 21.4534 3.52016C21.4445 3.16062 21.4386 2.80009 21.4564 2.44056C21.493 1.67295 22.1254 1.02123 22.8943 1.01528C24.9776 0.998446 27.0619 0.998446 29.1461 1.01528C29.9547 1.02222 30.5822 1.70365 30.5901 2.53168C30.6 3.54789 30.592 4.5641 30.593 5.58031Z" fill="#FCFCFC"/>
<path d="M21.4507 21.3378C21.4507 20.3642 21.4497 19.3906 21.4507 18.4159C21.4527 17.3997 22.0802 16.7639 23.0857 16.7629C25.0423 16.7609 26.9998 16.7609 28.9564 16.7629C29.951 16.7629 30.5884 17.3958 30.5913 18.3843C30.5943 19.3262 30.5933 20.2681 30.5913 21.21C30.5913 21.6092 30.3983 21.8429 30.0826 21.8419C29.7669 21.841 29.5779 21.6082 29.5779 21.2071C29.576 20.276 29.5789 19.344 29.5769 18.413C29.5759 17.9584 29.3978 17.7801 28.9416 17.7801C26.9949 17.7781 25.0492 17.7781 23.1025 17.7801C22.6462 17.7801 22.4681 17.9574 22.4681 18.414C22.4661 20.3612 22.4661 22.3094 22.4681 24.2567C22.4681 24.7143 22.6463 24.8936 23.0995 24.8936C25.0462 24.8955 26.9919 24.8955 28.9386 24.8936C29.3968 24.8936 29.573 24.7163 29.5779 24.2626C29.5809 23.9764 29.572 23.6911 29.5809 23.4049C29.5908 23.079 29.7937 22.8661 30.0817 22.8631C30.3697 22.8601 30.5824 23.0731 30.5913 23.397C30.6003 23.7565 30.6062 24.117 30.5884 24.4766C30.5508 25.2462 29.9214 25.8959 29.1514 25.9018C27.0681 25.9187 24.9839 25.9197 22.8996 25.9018C22.0911 25.8949 21.4626 25.2125 21.4547 24.3855C21.4458 23.3692 21.4527 22.353 21.4517 21.3368L21.4507 21.3378Z" fill="#FCFCFC"/>
<path d="M0.119263 10.1232C0.119263 8.83168 0.119263 7.54012 0.119263 6.24856C0.119263 5.74937 0.286516 5.58198 0.785311 5.58198C2.71122 5.58099 4.63615 5.58099 6.56205 5.58198C7.05986 5.58198 7.22808 5.75036 7.22907 6.24856C7.22907 8.85347 7.22907 11.4574 7.22907 14.0623C7.22907 14.5605 7.05983 14.7289 6.56302 14.7299C4.63711 14.7309 2.71218 14.7309 0.786278 14.7299C0.288472 14.7299 0.120229 14.5605 0.120229 14.0633C0.119239 12.7509 0.120229 11.4376 0.120229 10.1252L0.119263 10.1232ZM1.14851 13.6899H6.18894V6.61404H1.14851V13.6899Z" fill="#FCFCFC"/>
<path d="M17.3861 5.06809C17.39 7.59476 15.3395 9.64402 12.8049 9.64699C10.3129 9.64996 8.25341 7.59971 8.24648 5.11068C8.23955 2.56916 10.2822 0.499101 12.796 0.500092C15.3355 0.500092 17.3831 2.53846 17.3861 5.06909V5.06809ZM16.3707 5.0671C16.3687 3.10995 14.7694 1.51036 12.8187 1.51531C10.8434 1.52126 9.25889 3.11491 9.26186 5.09385C9.26483 7.02921 10.8641 8.62781 12.798 8.62979C14.7753 8.63177 16.3717 7.0401 16.3707 5.0671Z" fill="#FCFCFC"/>
<path d="M28.0532 21.3586C28.0433 22.4788 27.118 23.3821 25.9927 23.3692C24.8883 23.3573 23.9876 22.4392 23.9926 21.3308C23.9975 20.2067 24.913 19.3004 26.0373 19.3044C27.1566 19.3093 28.0631 20.2334 28.0532 21.3586ZM27.0368 21.3378C27.0388 20.7871 26.5806 20.3245 26.0313 20.3216C25.4751 20.3186 25.0169 20.7663 25.008 21.32C24.9991 21.8865 25.4622 22.355 26.0293 22.351C26.5826 22.3471 27.0349 21.8924 27.0368 21.3378Z" fill="#FCFCFC"/>
<path d="M25.0069 6.11622C24.1736 6.02609 23.9945 5.92803 23.9935 5.58137C23.9935 5.23372 24.1766 5.13368 25.0079 5.04652C25.0079 4.87517 25.003 4.69887 25.0079 4.52257C25.0347 3.72029 25.6661 3.07352 26.4628 3.04381C26.8112 3.03093 27.1615 3.0339 27.5098 3.04282C27.8344 3.05074 28.0482 3.25775 28.0502 3.54498C28.0522 3.83222 27.8384 4.04219 27.5158 4.05408C27.2515 4.06299 26.9873 4.05606 26.722 4.05705C26.1807 4.05804 26.0213 4.21651 26.0213 4.75334C26.0213 4.84744 26.0213 4.94054 26.0213 5.05246C26.4291 5.11882 27.0249 4.9346 27.018 5.59028C27.012 6.22121 26.4429 6.05877 26.0213 6.10235C26.0213 6.57084 26.0233 7.02348 26.0213 7.47513C26.0194 7.88023 25.8393 8.11298 25.5255 8.11992C25.199 8.12784 25.0079 7.89013 25.0069 7.46621C25.005 7.02249 25.0069 6.57876 25.0069 6.11622Z" fill="#FCFCFC"/>
<path d="M20.9803 15.7452C20.6398 15.7432 20.4201 15.5659 20.3854 15.2936C20.3518 15.0301 20.5349 14.7934 20.8318 14.732C21.6493 14.5646 22.4677 14.3992 23.2862 14.2367C23.6524 14.1644 23.9166 14.31 23.9849 14.6082C24.0571 14.9251 23.878 15.1688 23.496 15.249C22.7102 15.4134 21.9224 15.5709 21.1356 15.7294C21.0743 15.7422 21.0099 15.7422 20.9812 15.7442L20.9803 15.7452Z" fill="#FCFCFC"/>
<path d="M19.987 9.0695C19.8989 9.25868 19.8642 9.38348 19.792 9.48153C19.311 10.1352 18.8251 10.786 18.3332 11.4308C18.1224 11.7071 17.8265 11.7546 17.589 11.5714C17.3495 11.3862 17.3208 11.0999 17.5316 10.8157C18.0136 10.163 18.5015 9.51422 18.9904 8.86646C19.1369 8.67233 19.3437 8.55446 19.5673 8.66936C19.7326 8.75454 19.8504 8.93381 19.9879 9.07049L19.987 9.0695Z" fill="#FCFCFC"/>
<path d="M19.3533 13.7624C19.2237 13.6406 19.0158 13.5346 18.9693 13.3791C18.9218 13.2226 18.9693 12.9394 19.0851 12.8463C19.773 12.2896 20.4855 11.7637 21.204 11.2467C21.4267 11.0862 21.7226 11.1773 21.87 11.4002C22.0244 11.6329 21.9829 11.9073 21.7335 12.0994C21.0724 12.6056 20.4044 13.1028 19.7344 13.597C19.6453 13.6624 19.5275 13.6881 19.3533 13.7614V13.7624Z" fill="#FCFCFC"/>
<path d="M3.671 10.6628C3.34342 10.6628 3.01485 10.6707 2.68727 10.6608C2.36365 10.6509 2.15184 10.4399 2.15382 10.1517C2.1558 9.86249 2.36759 9.65351 2.69418 9.65054C3.35033 9.64261 4.00549 9.64261 4.66164 9.65054C4.98526 9.6545 5.19803 9.87042 5.19606 10.1586C5.19408 10.4459 4.98031 10.6529 4.6557 10.6608C4.32812 10.6697 3.99955 10.6628 3.67197 10.6628H3.671Z" fill="#FCFCFC"/>
<path d="M3.68603 11.6802C4.00371 11.6802 4.32042 11.6743 4.63811 11.6822C4.98053 11.6901 5.20221 11.9021 5.19528 12.2002C5.18835 12.4865 4.97258 12.6905 4.64598 12.6945C4.00072 12.7014 3.35549 12.7014 2.71022 12.6945C2.36681 12.6905 2.1461 12.4756 2.15401 12.1765C2.16094 11.8892 2.37469 11.6901 2.70326 11.6832C3.03085 11.6753 3.35941 11.6812 3.68699 11.6812L3.68603 11.6802Z" fill="#FCFCFC"/>
<path d="M4.21118 8.62648C4.02116 8.62648 3.82916 8.63935 3.64013 8.62351C3.36006 8.59973 3.16808 8.38282 3.16907 8.11837C3.17105 7.85293 3.36404 7.63305 3.64511 7.62017C4.00436 7.60432 4.36457 7.60333 4.72283 7.62017C5.00291 7.63404 5.19592 7.85887 5.19394 8.12332C5.19196 8.38778 4.998 8.59973 4.71693 8.62351C4.54869 8.63737 4.37843 8.62648 4.2092 8.62549L4.21118 8.62648Z" fill="#FCFCFC"/>
<path d="M11.2939 5.06974C11.2939 4.59332 11.289 4.1179 11.2949 3.64149C11.3008 3.13339 11.6492 2.91152 12.1045 3.13537C13.0714 3.6098 14.0383 4.08423 14.9894 4.58738C15.1487 4.67157 15.2952 4.88452 15.3367 5.06379C15.3921 5.3015 15.2021 5.46493 14.9884 5.5719C14.0244 6.05227 13.0634 6.53859 12.0975 7.01302C11.6423 7.23686 11.3008 7.01302 11.2949 6.49798C11.29 6.02157 11.2939 5.54615 11.2939 5.06974ZM13.7068 5.07172C13.2139 4.82509 12.7794 4.60719 12.3331 4.38335V5.76306C12.7933 5.53129 13.2208 5.31636 13.7068 5.07073V5.07172Z" fill="#FCFCFC"/>
</g>
<defs>
<filter id="filter0_d_0_1" x="-107.169" y="-534" width="417.169" height="1842" filterUnits="userSpaceOnUse" color-interpolation-filters="sRGB">
<feFlood flood-opacity="0" result="BackgroundImageFix"/>
<feColorMatrix in="SourceAlpha" type="matrix" values="0 0 0 0 0 0 0 0 0 0 0 0 0 0 0 0 0 0 127 0" result="hardAlpha"/>
<feOffset dy="20"/>
<feGaussianBlur stdDeviation="25"/>
<feColorMatrix type="matrix" values="0 0 0 0 0 0 0 0 0 0 0 0 0 0 0 0 0 0 0.1 0"/>
<feBlend mode="normal" in2="BackgroundImageFix" result="effect1_dropShadow_0_1"/>
<feBlend mode="normal" in="SourceGraphic" in2="effect1_dropShadow_0_1" result="shape"/>
</filter>
<clipPath id="clip0_0_1">
<rect width="1920" height="1447" fill="white" transform="translate(-66 -490)"/>
</clipPath>
</defs>
</svg>
