<svg width="37" height="37" viewBox="0 0 37 37" fill="none" xmlns="http://www.w3.org/2000/svg">
<rect width="37" height="37" fill="#F5F5F5"/>
<g clip-path="url(#clip0_0_1)">
<rect width="1920" height="1447" transform="translate(-62 -362)" fill="white"/>
<g filter="url(#filter0_d_0_1)">
<path d="M-53.1687 -366C-53.1687 -371.523 -48.6915 -376 -43.1687 -376H254C259.523 -376 264 -371.523 264 -366V1356C264 1361.52 259.523 1366 254 1366H-43.1687C-48.6916 1366 -53.1687 1361.52 -53.1687 1356V-366Z" fill="#094C89"/>
</g>
<g filter="url(#filter1_d_0_1)">
<path d="M10.1905 15.6513C9.58848 15.8423 9.01348 16.0251 8.42701 16.2112C8.48189 16.8916 8.29923 17.4892 7.82744 17.9835C7.08616 18.7589 5.89275 18.8688 5.02206 18.2458C4.14973 17.622 3.86469 16.4604 4.34959 15.5046C4.82876 14.5602 5.94763 14.0954 6.93054 14.4332C7.38104 14.5881 7.73734 14.8693 7.99125 15.2685C8.0961 15.4333 8.19029 15.4587 8.37131 15.3955C8.86768 15.2218 9.37224 15.0685 9.87516 14.9152C10.0062 14.875 10.0586 14.8291 10.0472 14.6725C9.86943 12.1715 10.3789 10.6575 12.0761 8.63434C12.0285 8.58269 11.9835 8.52367 11.9294 8.47449C11.1546 7.77361 10.374 7.07847 9.60568 6.3694C9.45415 6.22922 9.35749 6.22922 9.18548 6.33907C8.03712 7.07027 6.61765 7.02437 5.52826 6.23742C4.46754 5.47096 3.98427 4.15528 4.29061 2.86747C4.59777 1.57638 5.66341 0.603354 7.01081 0.415634C8.34674 0.228734 9.42384 0.709101 10.1725 1.81411C10.9203 2.91748 10.9097 4.08397 10.2577 5.2439C10.2053 5.33653 10.1463 5.42506 10.0742 5.54064C10.9645 6.34481 11.8533 7.14651 12.7231 7.931C13.2252 7.62032 13.7028 7.32112 14.186 7.03011C14.2753 6.97682 14.3834 6.93994 14.4866 6.92764C14.7086 6.90223 14.8732 7.0047 14.9322 7.22111C14.9928 7.44326 14.9134 7.62032 14.7078 7.74C14.3539 7.94576 13.987 8.13348 13.6552 8.37038C11.4568 9.93936 10.4158 12.7232 11.0391 15.3242C11.6698 17.9531 13.8494 19.9615 16.5221 20.3738C20.2931 20.9558 23.753 18.3073 24.1953 14.4996C24.6179 10.8566 21.8281 7.45801 18.166 7.15799C17.9718 7.14241 17.7761 7.13257 17.582 7.11946C17.2953 7.09979 17.1298 6.94485 17.1257 6.69074C17.1216 6.42514 17.3018 6.21775 17.5942 6.24644C18.2233 6.30874 18.8515 6.39481 19.4732 6.50547C19.796 6.56286 20.1056 6.69483 20.4463 6.8014C20.9951 6.12184 21.5521 5.43326 22.1041 4.74959C21.068 3.19947 21.6209 1.74607 22.5424 0.991911C23.5548 0.163975 24.9832 0.162335 25.9317 0.99437C26.9433 1.88133 27.1694 3.40686 26.4568 4.5381C25.6705 5.78574 24.3452 6.08577 22.6718 5.37669C22.1721 5.97592 21.6676 6.58171 21.1442 7.20963C22.2532 7.84329 23.1509 8.68106 23.8275 9.74672C24.5041 10.8124 24.8776 11.9822 24.9816 13.2601C25.6713 13.3339 26.347 13.4052 27.0359 13.479C27.0932 13.3216 27.1399 13.1749 27.1981 13.0322C27.6805 11.86 28.937 11.1673 30.1361 11.41C31.35 11.6559 32.2395 12.7224 32.2526 13.9479C32.2658 15.1972 31.3983 16.2628 30.1574 16.5235C28.8231 16.803 27.4634 15.9644 27.1153 14.625C27.0588 14.4086 26.9663 14.3455 26.7672 14.3282C26.1963 14.2774 25.627 14.211 25.034 14.1487C24.8448 16.4276 23.9192 18.3171 22.1279 19.7311C20.3341 21.1476 18.2757 21.5788 16.0249 21.2214C15.938 21.8248 15.8488 22.3928 15.7841 22.9634C15.7759 23.0396 15.8774 23.1609 15.9593 23.2109C16.9898 23.8397 17.5205 24.7381 17.4673 25.9595C17.405 27.3695 16.1977 28.5573 14.7586 28.6261C13.2981 28.6958 11.9778 27.6293 11.7836 26.2243C11.533 24.4094 12.81 22.9216 14.6447 22.888C14.7307 22.8863 14.8159 22.8789 14.9207 22.8724C15.0084 22.2338 15.0944 21.6083 15.1829 20.9583C12.6445 20.032 10.9768 18.2769 10.188 15.6513H10.1905ZM5.09004 3.62409C5.08349 4.90452 6.09916 5.92428 7.38923 5.93412C8.71697 5.94395 9.78669 4.916 9.79816 3.62163C9.80881 2.32727 8.76284 1.25915 7.47605 1.25095C6.15814 1.24275 5.0966 2.29857 5.09004 3.62409ZM16.6441 25.7669C16.6482 24.6914 15.7652 23.7741 14.7201 23.7692C13.5701 23.7634 12.6674 24.6397 12.6699 25.762C12.6715 26.8498 13.5537 27.7384 14.6398 27.7474C15.7374 27.7572 16.64 26.8653 16.6441 25.7669ZM26.0833 3.05929C26.0833 2.07233 25.2625 1.25095 24.2755 1.25013C23.2754 1.25013 22.4293 2.07888 22.4285 3.06011C22.4269 4.0397 23.2754 4.87501 24.2723 4.87501C25.2421 4.87501 26.0841 4.0315 26.0833 3.05929ZM29.7569 15.6841C30.6841 15.6784 31.4737 14.8832 31.4696 13.9585C31.4655 13.0175 30.6931 12.2527 29.7471 12.2527C28.7756 12.2527 27.9655 13.0503 27.9819 13.9889C27.9983 14.9275 28.7977 15.6906 29.7577 15.6849L29.7569 15.6841ZM4.99339 16.476C4.98766 17.1768 5.57249 17.767 6.27281 17.7687C6.97067 17.7703 7.56123 17.1777 7.55714 16.4801C7.55304 15.7898 6.9805 15.2127 6.29083 15.2054C5.58723 15.1972 4.99913 15.7734 4.99339 16.4768V16.476Z" fill="#FCFCFC"/>
<path d="M13.1532 13.9722C13.1532 12.9368 13.1614 11.9007 13.1483 10.8654C13.1442 10.5375 13.2695 10.3465 13.5677 10.2087C14.7979 9.64231 16.0184 9.0521 17.2511 8.49058C17.3879 8.42828 17.6049 8.43811 17.7458 8.50205C19.0064 9.07259 20.2572 9.66608 21.5153 10.244C21.7643 10.3588 21.856 10.5342 21.8552 10.7965C21.8519 12.8967 21.8511 14.9977 21.8552 17.0978C21.8552 17.3987 21.7512 17.579 21.4522 17.6897C20.2187 18.1455 18.9949 18.6291 17.7614 19.0857C17.6131 19.1406 17.4092 19.1447 17.2618 19.0906C16.0282 18.634 14.8045 18.1512 13.5709 17.6938C13.2638 17.5798 13.1483 17.3913 13.1508 17.0782C13.1581 16.0428 13.1532 15.0075 13.1532 13.9714V13.9722ZM20.9927 11.3687C20.8788 11.4179 20.792 11.4539 20.7068 11.4925C19.882 11.8663 19.0605 12.2483 18.2307 12.6106C18.0325 12.6975 17.958 12.7983 17.9596 13.0196C17.9694 14.6009 17.9645 16.1822 17.9662 17.7643C17.9662 17.8569 17.9776 17.9487 17.9858 18.0692C18.9343 17.711 19.8427 17.361 20.7576 17.0306C20.9624 16.9568 21.014 16.8511 21.0124 16.6486C21.005 14.9895 21.0083 13.3295 21.0074 11.6695C21.0074 11.5835 20.9993 11.4966 20.9935 11.3687H20.9927ZM17.0537 18.0594C17.0652 17.9815 17.0783 17.9348 17.0783 17.8881C17.0791 16.2371 17.0824 14.5853 17.0709 12.9344C17.0709 12.8409 16.9726 12.7032 16.8842 12.6614C16.029 12.2589 15.1657 11.872 14.304 11.4818C14.2287 11.4482 14.1484 11.4261 14.064 11.3966C14.0517 11.4482 14.0386 11.4752 14.0386 11.5031C14.037 13.2524 14.0337 15.0009 14.0452 16.7503C14.0452 16.8372 14.1615 16.965 14.2524 17.0019C14.7848 17.2183 15.3262 17.4134 15.8644 17.6151C16.2543 17.761 16.645 17.9069 17.0529 18.0586L17.0537 18.0594ZM14.6636 10.7031C15.4319 11.0613 16.1601 11.3646 16.8522 11.7359C17.3175 11.9859 17.7057 11.9958 18.175 11.7408C18.8721 11.3629 19.6093 11.0588 20.3415 10.717C20.303 10.6809 20.2858 10.6539 20.2613 10.6424C19.3947 10.2407 18.5281 9.83741 17.6574 9.44639C17.5755 9.4095 17.4477 9.42344 17.3609 9.46033C16.9489 9.63739 16.5442 9.83085 16.1371 10.0186C15.6621 10.2383 15.1878 10.4588 14.6628 10.7022L14.6636 10.7031Z" fill="#FCFCFC"/>
</g>
</g>
<defs>
<filter id="filter0_d_0_1" x="-103.169" y="-406" width="417.169" height="1842" filterUnits="userSpaceOnUse" color-interpolation-filters="sRGB">
<feFlood flood-opacity="0" result="BackgroundImageFix"/>
<feColorMatrix in="SourceAlpha" type="matrix" values="0 0 0 0 0 0 0 0 0 0 0 0 0 0 0 0 0 0 127 0" result="hardAlpha"/>
<feOffset dy="20"/>
<feGaussianBlur stdDeviation="25"/>
<feColorMatrix type="matrix" values="0 0 0 0 0 0 0 0 0 0 0 0 0 0 0 0 0 0 0.1 0"/>
<feBlend mode="normal" in2="BackgroundImageFix" result="effect1_dropShadow_0_1"/>
<feBlend mode="normal" in="SourceGraphic" in2="effect1_dropShadow_0_1" result="shape"/>
</filter>
<filter id="filter1_d_0_1" x="0.114502" y="0.370651" width="36.1383" height="36.2587" filterUnits="userSpaceOnUse" color-interpolation-filters="sRGB">
<feFlood flood-opacity="0" result="BackgroundImageFix"/>
<feColorMatrix in="SourceAlpha" type="matrix" values="0 0 0 0 0 0 0 0 0 0 0 0 0 0 0 0 0 0 127 0" result="hardAlpha"/>
<feOffset dy="4"/>
<feGaussianBlur stdDeviation="2"/>
<feComposite in2="hardAlpha" operator="out"/>
<feColorMatrix type="matrix" values="0 0 0 0 0 0 0 0 0 0 0 0 0 0 0 0 0 0 0.25 0"/>
<feBlend mode="normal" in2="BackgroundImageFix" result="effect1_dropShadow_0_1"/>
<feBlend mode="normal" in="SourceGraphic" in2="effect1_dropShadow_0_1" result="shape"/>
</filter>
<clipPath id="clip0_0_1">
<rect width="1920" height="1447" fill="white" transform="translate(-62 -362)"/>
</clipPath>
</defs>
</svg>
