<svg width="26" height="37" viewBox="0 0 26 37" fill="none" xmlns="http://www.w3.org/2000/svg">
<path d="M20.9395 24.7174H20.9237V18.1554C20.9237 13.112 18.5735 8.85069 15.3528 7.47934C15.5902 6.92401 15.7406 6.278 15.7406 5.57535C15.7406 3.52401 14.5773 1.85805 13.145 1.85805C11.7127 1.85805 10.5495 3.52401 10.5495 5.57535C10.5495 6.27801 10.6998 6.92401 10.9373 7.47934C7.71659 8.85069 5.36634 13.112 5.36634 18.1554V24.7174H5.35055C3.91033 24.7174 2.74707 26.3947 2.74707 28.446C2.74707 30.4973 3.91034 32.1747 5.35055 32.1747H9.82147C10.1776 34.2827 11.4991 35.858 13.0817 35.858H13.2083C14.791 35.858 16.1125 34.2827 16.4686 32.1747H20.9395C22.3797 32.1747 23.543 30.4973 23.543 28.446C23.543 26.3947 22.3797 24.7174 20.9395 24.7174ZM13.145 4.12471C13.699 4.12471 14.1579 4.77073 14.1579 5.57535C14.1579 6.36869 13.699 7.0147 13.145 7.0147C12.5911 7.0147 12.1321 6.36869 12.1321 5.57535C12.1321 4.77073 12.5911 4.12471 13.145 4.12471ZM20.9395 29.908H5.35055C4.78869 29.908 4.32971 29.2507 4.32971 28.446C4.32971 27.6414 4.78869 26.984 5.35055 26.984H20.9395C21.5014 26.984 21.9604 27.6414 21.9604 28.446C21.9604 29.2507 21.5014 29.908 20.9395 29.908Z" fill="#979797"/>
</svg>
