<svg width="27" height="29" viewBox="0 0 27 29" fill="none" xmlns="http://www.w3.org/2000/svg">
<rect width="27" height="29" fill="#F5F5F5"/>
<g clip-path="url(#clip0_0_1)">
<rect width="1920" height="1447" transform="translate(-66 -752)" fill="white"/>
<g filter="url(#filter0_d_0_1)">
<path d="M-57.1687 -756C-57.1687 -761.523 -52.6915 -766 -47.1687 -766H250C255.523 -766 260 -761.523 260 -756V966C260 971.523 255.523 976 250 976H-47.1687C-52.6916 976 -57.1687 971.523 -57.1687 966V-756Z" fill="#094C89"/>
</g>
<path d="M13.6358 0.30658C14.228 0.603536 14.8164 0.907399 15.4124 1.19515C19.0786 2.96384 22.7457 4.73101 26.4157 6.49049C26.7049 6.62938 26.8218 6.81277 26.8211 7.13505C26.8134 12.0552 26.8134 16.9753 26.8211 21.8954C26.8211 22.22 26.698 22.4003 26.4111 22.5377C22.2081 24.555 18.0073 26.5784 13.8089 28.6073C13.5689 28.7231 13.3682 28.7216 13.1282 28.6057C8.93824 26.5815 4.74594 24.5619 0.549802 22.5507C0.240629 22.4026 0.113736 22.2146 0.114505 21.8686C0.122965 16.9669 0.122965 12.0651 0.114505 7.16344C0.114505 6.81891 0.234491 6.62785 0.545972 6.47898C4.7175 4.48086 8.8844 2.47199 13.0513 0.463882C13.1398 0.421679 13.2182 0.360293 13.3013 0.307347C13.4128 0.307347 13.5235 0.307347 13.6351 0.307347L13.6358 0.30658ZM13.0513 27.6358V26.6352C13.0513 22.362 13.0475 18.0895 13.059 13.8162C13.059 13.52 12.9744 13.3604 12.7006 13.2622C12.4753 13.1816 12.2645 13.0604 12.0484 12.9545C11.7562 12.811 11.6501 12.5931 11.7554 12.3598C11.8608 12.1258 12.1038 12.0636 12.3968 12.1979C12.4476 12.2209 12.5014 12.2401 12.5453 12.2723C13.1698 12.7281 13.7604 12.6829 14.4164 12.2762C15.0186 11.9032 15.6908 11.6431 16.3353 11.3385C16.6137 11.2065 16.8475 11.2679 16.9583 11.4866C17.0736 11.7152 16.9714 11.9424 16.6876 12.0882C16.6383 12.1135 16.5891 12.1388 16.5391 12.1626C15.747 12.544 14.9587 12.9322 14.1611 13.3021C13.9589 13.3957 13.8804 13.5054 13.8812 13.7356C13.8889 18.2583 13.8866 22.7809 13.8873 27.3036C13.8873 27.4002 13.8958 27.4962 13.9019 27.622C14.0127 27.5729 14.0881 27.5414 14.1611 27.5061C18.0289 25.6438 21.8958 23.78 25.7666 21.9246C25.952 21.8356 25.9874 21.7258 25.9866 21.5424C25.982 17.0014 25.9835 12.4603 25.9835 7.91926V7.62154C25.872 7.67218 25.7974 7.70441 25.7243 7.73971C24.6069 8.27684 23.4925 8.81934 22.3711 9.34803C22.1935 9.43167 22.1335 9.52912 22.135 9.72326C22.1435 11.2495 22.1335 12.7757 22.1442 14.3012C22.1465 14.6227 22.0273 14.813 21.7374 14.948C20.7983 15.3862 19.8677 15.8419 18.9341 16.2901C18.4434 16.5256 18.1857 16.3683 18.185 15.8297C18.1834 14.3035 18.1804 12.7772 18.1896 11.2518C18.1911 11.0546 18.1242 10.9587 17.9512 10.875C13.915 8.93674 9.88191 6.99079 5.84343 5.05635C5.73346 5.00341 5.55426 5.00801 5.44197 5.06096C4.43601 5.53056 3.4385 6.01782 2.43791 6.49893C2.14182 6.64166 1.84571 6.78361 1.51193 6.94475C1.63268 7.00614 1.71345 7.04911 1.79497 7.08824C4.39525 8.34129 6.99553 9.59435 9.59504 10.8474C9.90345 10.9963 10.2149 11.139 10.5179 11.2978C10.7456 11.4175 10.8194 11.6539 10.7156 11.8603C10.6179 12.0544 10.3964 12.1304 10.1657 12.0437C10.0796 12.0114 9.99804 11.9654 9.91498 11.9247C7.0309 10.5359 4.14682 9.14622 1.26275 7.75736C1.16969 7.71208 1.07355 7.67295 0.954343 7.62V7.94459C0.954343 12.4672 0.956663 16.9899 0.948203 21.5125C0.948203 21.7412 1.02281 21.8486 1.222 21.9445C4.51754 23.5245 7.80846 25.1121 11.1009 26.6981C11.7323 27.002 12.3645 27.3051 13.0498 27.6335L13.0513 27.6358ZM10.0319 2.84184C10.1434 2.90323 10.2126 2.94543 10.2849 2.98073C14.1257 4.83076 17.9658 6.68156 21.8105 8.52469C21.9066 8.57073 22.0635 8.56766 22.1611 8.52239C23.1986 8.03436 24.2308 7.5333 25.2629 7.0353C25.3083 7.01381 25.3467 6.97852 25.4044 6.93785C25.3252 6.89871 25.2683 6.86956 25.2106 6.84193C23.7109 6.11911 22.2119 5.39551 20.7122 4.67346C18.3711 3.54548 16.03 2.41751 13.6858 1.29567C13.5843 1.24733 13.4274 1.21663 13.3344 1.26037C12.2461 1.77065 11.1655 2.29703 10.0327 2.84261L10.0319 2.84184ZM6.64407 4.49697C6.7302 4.54454 6.78403 4.57754 6.84094 4.60516C10.691 6.46057 14.541 8.31674 18.3949 10.1637C18.498 10.2128 18.6672 10.2051 18.7741 10.156C19.4547 9.84296 20.1269 9.51147 20.8014 9.18536C20.856 9.15927 20.9068 9.12627 20.9898 9.0787C20.8883 9.02422 20.8191 8.98278 20.7476 8.94825C19.0894 8.1487 17.4313 7.34914 15.7731 6.55035C13.6151 5.50985 11.457 4.46858 9.29665 3.43345C9.19744 3.38588 9.04976 3.34291 8.96363 3.38204C8.19454 3.73885 7.43392 4.11407 6.64407 4.49774V4.49697ZM21.289 9.88977C21.1813 9.93657 21.0983 9.9688 21.0175 10.0072C20.4338 10.2872 19.8539 10.5758 19.2655 10.8443C19.081 10.9287 19.0102 11.0277 19.0125 11.2372C19.0233 12.4941 19.0179 13.7517 19.0187 15.0086C19.0187 15.0976 19.0264 15.1866 19.031 15.2933C19.0887 15.278 19.1248 15.2734 19.1556 15.2588C19.8224 14.9388 20.4861 14.6127 21.1583 14.3019C21.319 14.2275 21.3052 14.1132 21.3052 13.985C21.3052 12.7097 21.3052 11.4336 21.3052 10.1583C21.3052 10.0793 21.2967 9.9995 21.2906 9.88977H21.289Z" fill="#FCFCFC"/>
<path d="M2.26327 17.2402C2.42094 17.2954 2.52015 17.32 2.61013 17.3629C3.75146 17.9101 4.89278 18.4595 6.03257 19.0104C6.34174 19.16 6.44943 19.3872 6.33561 19.6235C6.22255 19.8591 5.98259 19.9082 5.66265 19.7547C4.52979 19.2107 3.39768 18.6651 2.26558 18.1188C2.19098 18.0827 2.08331 18.0535 2.05639 17.9929C1.99487 17.8525 1.91489 17.6776 1.95258 17.5486C1.9895 17.422 2.16175 17.3346 2.26327 17.2402Z" fill="#FCFCFC"/>
<path d="M2.25568 19.203C2.41565 19.2636 2.5041 19.2905 2.58639 19.3296C3.1609 19.6035 3.73539 19.8782 4.30683 20.1575C4.60677 20.3041 4.70213 20.5159 4.58908 20.7514C4.47833 20.9801 4.23915 21.0423 3.94921 20.9041C3.35701 20.6233 2.76712 20.3394 2.178 20.0524C1.97419 19.9534 1.83806 19.7815 1.92728 19.5636C1.98726 19.4171 2.15108 19.3119 2.25568 19.2022V19.203Z" fill="#FCFCFC"/>
</g>
<defs>
<filter id="filter0_d_0_1" x="-107.169" y="-796" width="417.169" height="1842" filterUnits="userSpaceOnUse" color-interpolation-filters="sRGB">
<feFlood flood-opacity="0" result="BackgroundImageFix"/>
<feColorMatrix in="SourceAlpha" type="matrix" values="0 0 0 0 0 0 0 0 0 0 0 0 0 0 0 0 0 0 127 0" result="hardAlpha"/>
<feOffset dy="20"/>
<feGaussianBlur stdDeviation="25"/>
<feColorMatrix type="matrix" values="0 0 0 0 0 0 0 0 0 0 0 0 0 0 0 0 0 0 0.1 0"/>
<feBlend mode="normal" in2="BackgroundImageFix" result="effect1_dropShadow_0_1"/>
<feBlend mode="normal" in="SourceGraphic" in2="effect1_dropShadow_0_1" result="shape"/>
</filter>
<clipPath id="clip0_0_1">
<rect width="1920" height="1447" fill="white" transform="translate(-66 -752)"/>
</clipPath>
</defs>
</svg>
