<svg width="33" height="38" viewBox="0 0 33 38" fill="none" xmlns="http://www.w3.org/2000/svg">
<rect width="33" height="38" fill="#F5F5F5"/>
<g clip-path="url(#clip0_0_1)">
<rect width="1920" height="1447" transform="translate(-67 -234)" fill="white"/>
<g filter="url(#filter0_d_0_1)">
<path d="M-58.1687 -238C-58.1687 -243.523 -53.6915 -248 -48.1687 -248H249C254.523 -248 259 -243.523 259 -238V1484C259 1489.52 254.523 1494 249 1494H-48.1687C-53.6916 1494 -58.1687 1489.52 -58.1687 1484V-238Z" fill="#094C89"/>
</g>
<rect x="-58" y="-10" width="317.169" height="64" fill="#003E76"/>
<path d="M9.46225 14.6754C8.75473 11.3436 9.60435 8.58229 12.4354 6.68534C14.9803 4.98059 17.711 4.97362 20.2639 6.66642C23.1168 8.55938 23.9784 11.3286 23.2649 14.6764C23.4318 14.7461 23.6216 14.8297 23.8134 14.9044C25.5892 15.5975 27.3689 16.2796 29.1367 16.9926C29.3782 17.0901 29.6236 17.3002 29.7558 17.5243C30.667 19.0598 31.5495 20.6132 32.4398 22.1606C32.7826 22.7571 32.6783 23.0518 32.0344 23.3037C31.3775 23.5607 30.7247 23.8285 30.0589 24.0625C29.8015 24.1531 29.733 24.2846 29.7339 24.5455C29.7439 27.0668 29.7399 29.589 29.7399 32.1103C29.7399 32.7217 29.6654 32.8362 29.1079 33.0533C25.0148 34.6495 20.9197 36.2438 16.8276 37.844C16.5236 37.9635 16.2443 37.9774 15.9323 37.8549C11.8293 36.2478 7.72326 34.6485 3.61824 33.0473C3.06971 32.8333 2.98922 32.7217 2.98822 32.1432C2.98822 29.6219 2.98226 27.0996 2.99518 24.5783C2.99717 24.2826 2.91668 24.1422 2.63248 24.0426C1.94384 23.8016 1.26811 23.5228 0.589408 23.254C0.0846026 23.0538 -0.0366301 22.7252 0.233659 22.2532C1.15781 20.6391 2.08295 19.0249 3.02897 17.4227C3.13728 17.2395 3.3559 17.0812 3.55861 17.0005C5.45561 16.2447 7.36055 15.5079 9.26251 14.765C9.33009 14.7381 9.39468 14.7043 9.46225 14.6724V14.6754ZM16.9727 36.4838C17.0969 36.4429 17.2023 36.414 17.3036 36.3752C20.9486 34.9562 24.5915 33.5343 28.2394 32.1243C28.4998 32.0237 28.5574 31.8843 28.5564 31.6304C28.5475 29.4317 28.5514 27.233 28.5504 25.0344C28.5504 24.9278 28.5395 24.8213 28.5325 24.6799C28.3418 24.7496 28.1798 24.8054 28.0208 24.8671C25.2295 25.9535 22.4391 27.0409 19.6478 28.1253C19.143 28.3214 18.9393 28.2497 18.668 27.7817C18.1701 26.9234 17.6773 26.063 17.1794 25.2037C17.1297 25.117 17.0651 25.0384 16.9727 24.9059V36.4828V36.4838ZM4.17869 24.6679C4.17869 24.8372 4.17869 24.9597 4.17869 25.0812C4.17869 27.255 4.18565 29.4287 4.17074 31.6035C4.16875 31.9022 4.26017 32.0297 4.53742 32.1372C7.96672 33.4616 11.39 34.8019 14.8154 36.1362C15.1204 36.2547 15.4275 36.3663 15.7365 36.4818V24.884C15.1761 25.8539 14.6613 26.7441 14.1476 27.6353C13.766 28.2975 13.6338 28.3443 12.9273 28.0685C10.2522 27.0249 7.57619 25.9814 4.90112 24.9388C4.67356 24.8502 4.445 24.7675 4.17968 24.6689L4.17869 24.6679ZM16.3795 6.66543C13.0962 6.65248 10.4142 9.32413 10.4053 12.6181C10.3963 15.9161 13.0535 18.6107 16.3298 18.6246C19.615 18.6396 22.3089 15.9709 22.3229 12.6868C22.3378 9.36596 19.6846 6.67837 16.3795 6.66543ZM19.5285 26.8965C23.4259 25.3769 27.2924 23.8693 31.1798 22.3548C30.4057 21.0115 29.6515 19.704 28.8794 18.3637C24.9939 19.8773 21.1274 21.3839 17.2281 22.9034C17.9962 24.2368 18.7485 25.5432 19.5285 26.8965ZM1.55132 22.3538C5.44865 23.8713 9.31816 25.3789 13.2036 26.8925C13.9767 25.5502 14.7309 24.2408 15.499 22.9084C15.3381 22.8427 15.2029 22.7849 15.0658 22.7312C13.452 22.1018 11.8372 21.4725 10.2234 20.8432C8.20521 20.0565 6.18897 19.2679 4.16677 18.4922C4.0515 18.4484 3.81201 18.4613 3.77028 18.531C3.024 19.7867 2.30058 21.0553 1.55231 22.3528L1.55132 22.3538ZM22.8257 15.7568C22.7561 15.8773 22.7074 15.9609 22.6587 16.0456C21.3272 18.3617 19.3348 19.6911 16.6686 19.7887C13.771 19.8952 11.5699 18.5977 10.1042 16.0854C9.95712 15.8335 9.85178 15.7538 9.56957 15.8793C9.00514 16.1302 8.42183 16.3413 7.84747 16.5703C6.99884 16.9089 6.15121 17.2475 5.24792 17.6089C5.394 17.6727 5.47846 17.7135 5.56591 17.7473C9.08166 19.1165 12.5974 20.4887 16.1181 21.8459C16.2801 21.9087 16.5096 21.8937 16.6756 21.83C18.7783 21.0234 20.874 20.2019 22.9727 19.3844C24.4583 18.8049 25.9449 18.2263 27.511 17.6159C25.9052 16.9786 24.3709 16.3692 22.8267 15.7558L22.8257 15.7568Z" fill="#FCFCFC"/>
<path d="M11.5658 5.40064C11.4794 5.32029 11.2758 5.20995 11.1772 5.02677C10.7314 4.19655 10.3099 3.3492 9.89226 2.4997C9.71956 2.1494 9.81718 1.77554 10.0941 1.60092C10.3625 1.43167 10.6741 1.51737 10.8496 1.85374C11.2983 2.71395 11.7422 3.57737 12.1637 4.45472C12.3749 4.89394 12.0961 5.40064 11.5648 5.40171L11.5658 5.40064Z" fill="#FCFCFC"/>
<path d="M17.0891 2.01728C17.0891 2.44194 17.0939 2.86659 17.0875 3.29125C17.0818 3.68766 16.8871 3.94479 16.6051 3.94479C16.3232 3.94479 16.1261 3.68863 16.1236 3.29125C16.1188 2.43025 16.1188 1.56828 16.1236 0.707276C16.1261 0.305021 16.3175 0.0595779 16.606 0.0595779C16.8952 0.0595779 17.0826 0.305021 17.0883 0.707276C17.0939 1.14362 17.0899 1.58094 17.0899 2.01728H17.0891Z" fill="#FCFCFC"/>
<path d="M5.93001 5.88885C6.13518 5.99008 6.25885 6.0341 6.36846 6.10672C7.06829 6.57547 7.76625 7.04643 8.46046 7.52398C8.82303 7.77266 8.92608 8.13028 8.7537 8.48129C8.58413 8.82681 8.26279 8.90273 7.9021 8.66065C7.18165 8.1798 6.46589 7.69014 5.75014 7.20158C5.4822 7.01892 5.35853 6.72072 5.48594 6.40162C5.57213 6.18705 5.78855 6.0451 5.93095 5.88775L5.93001 5.88885Z" fill="#FCFCFC"/>
<path d="M21.1365 5.40203C20.6264 5.38516 20.3559 4.95973 20.5581 4.58677C20.9858 3.79774 21.4416 3.02371 21.903 2.25436C22.063 1.98823 22.3869 1.93575 22.6415 2.08381C22.8914 2.23 23.0018 2.53923 22.8492 2.8138C22.414 3.59908 21.9666 4.3778 21.4996 5.14433C21.4154 5.28302 21.2132 5.34956 21.1355 5.40203H21.1365Z" fill="#FCFCFC"/>
<path d="M27.2901 7.0467C27.2271 7.12501 27.1313 7.32787 26.9725 7.42506C26.2546 7.86663 25.5217 8.28462 24.7888 8.69978C24.4543 8.88943 24.1282 8.80545 23.9676 8.51767C23.805 8.22423 23.9008 7.92042 24.2438 7.71755C24.9598 7.29485 25.6777 6.87592 26.4021 6.46831C26.8353 6.22394 27.2863 6.46265 27.2891 7.04576L27.2901 7.0467Z" fill="#FCFCFC"/>
<path d="M26.7851 13.6536C26.3602 13.6536 25.9353 13.6633 25.5105 13.6512C25.1031 13.6391 24.8634 13.3591 24.8615 12.9251C24.8595 12.4863 25.0973 12.2112 25.5066 12.2063C26.368 12.1991 27.2294 12.1991 28.0918 12.2063C28.4952 12.21 28.7457 12.4948 28.7467 12.9203C28.7467 13.3421 28.4943 13.6391 28.0957 13.6512C27.6592 13.6646 27.2216 13.6536 26.7851 13.6536Z" fill="#FCFCFC"/>
<path d="M5.43055 13.1694C5.00522 13.1694 4.58087 13.1767 4.15554 13.1678C3.72143 13.1589 3.48047 12.9691 3.49315 12.667C3.50486 12.3794 3.73899 12.209 4.16334 12.2057C5.01303 12.1993 5.86369 12.1993 6.71337 12.2057C7.13187 12.209 7.3699 12.3859 7.37771 12.6726C7.38551 12.9723 7.14163 13.1589 6.70557 13.1678C6.28121 13.1759 5.85588 13.1694 5.43055 13.1694Z" fill="#FCFCFC"/>
<path d="M14.9244 12.6858C16.0712 11.5336 17.1781 10.4264 18.2781 9.31409C18.7296 8.8578 19.2637 8.69306 19.8744 8.87178C20.9843 9.19427 21.3433 10.5572 20.5447 11.4258C20.0991 11.91 19.6198 12.3633 19.1553 12.8306C18.103 13.887 17.0528 14.9453 15.9976 15.9997C15.189 16.8074 14.2044 16.7555 13.4952 15.8689C12.8816 15.1021 12.2719 14.3323 11.6662 13.5605C11.0715 12.8027 11.1431 11.8501 11.8284 11.298C12.5365 10.7279 13.4754 10.8667 14.089 11.6335C14.3595 11.971 14.6271 12.3114 14.9244 12.6868V12.6858ZM12.813 12.0938C12.6837 12.1896 12.5186 12.2515 12.5096 12.3324C12.4917 12.4861 12.5136 12.6858 12.6031 12.8037C13.182 13.5665 13.7827 14.3113 14.3764 15.0621C14.6927 15.4625 14.8389 15.4705 15.2059 15.1031C16.645 13.6593 18.0832 12.2156 19.5213 10.7708C19.5909 10.7009 19.7003 10.632 19.7132 10.5502C19.7351 10.4074 19.7471 10.2027 19.6665 10.1218C19.5849 10.041 19.3791 10.0479 19.2398 10.0759C19.1463 10.0949 19.0718 10.2147 18.9932 10.2946C17.8087 11.4827 16.6251 12.6729 15.4396 13.86C14.9901 14.3093 14.6738 14.2883 14.274 13.7881C13.902 13.3218 13.537 12.8496 13.1591 12.3873C13.0706 12.2795 12.9433 12.2026 12.814 12.0948L12.813 12.0938Z" fill="#FCFCFC"/>
</g>
<defs>
<filter id="filter0_d_0_1" x="-108.169" y="-278" width="417.169" height="1842" filterUnits="userSpaceOnUse" color-interpolation-filters="sRGB">
<feFlood flood-opacity="0" result="BackgroundImageFix"/>
<feColorMatrix in="SourceAlpha" type="matrix" values="0 0 0 0 0 0 0 0 0 0 0 0 0 0 0 0 0 0 127 0" result="hardAlpha"/>
<feOffset dy="20"/>
<feGaussianBlur stdDeviation="25"/>
<feColorMatrix type="matrix" values="0 0 0 0 0 0 0 0 0 0 0 0 0 0 0 0 0 0 0.1 0"/>
<feBlend mode="normal" in2="BackgroundImageFix" result="effect1_dropShadow_0_1"/>
<feBlend mode="normal" in="SourceGraphic" in2="effect1_dropShadow_0_1" result="shape"/>
</filter>
<clipPath id="clip0_0_1">
<rect width="1920" height="1447" fill="white" transform="translate(-67 -234)"/>
</clipPath>
</defs>
</svg>
