<svg width="29" height="30" viewBox="0 0 29 30" fill="none" xmlns="http://www.w3.org/2000/svg">
<rect width="29" height="30" fill="#F5F5F5"/>
<g clip-path="url(#clip0_0_1)">
<rect width="1920" height="1447" transform="translate(-66 -554)" fill="white"/>
<g filter="url(#filter0_d_0_1)">
<path d="M-57.1687 -558C-57.1687 -563.523 -52.6915 -568 -47.1687 -568H250C255.523 -568 260 -563.523 260 -558V1164C260 1169.52 255.523 1174 250 1174H-47.1687C-52.6916 1174 -57.1687 1169.52 -57.1687 1164V-558Z" fill="#094C89"/>
</g>
<path d="M16.0864 0.986266C16.2194 1.09456 16.3635 1.19188 16.4841 1.31261C18.0166 2.84924 19.5432 4.39171 21.0801 5.92394C21.2914 6.13468 21.3754 6.36151 21.374 6.65347C21.3667 8.10375 21.371 9.55403 21.371 11.0043C21.371 11.1024 21.371 11.2004 21.371 11.3629C21.4858 11.2575 21.5575 11.1968 21.624 11.1302C22.5621 10.1987 23.4987 9.26573 24.4367 8.33351C24.8396 7.93326 25.0487 7.93253 25.4479 8.33205C26.2017 9.08646 26.9548 9.84233 27.7086 10.5975C28.1393 11.0292 28.137 11.2019 27.6976 11.6416C25.6548 13.6868 23.6135 15.7327 21.5663 17.7735C21.4259 17.914 21.3667 18.0523 21.3674 18.2513C21.3733 21.5719 21.3718 24.8917 21.3703 28.2123C21.3703 28.3484 21.3645 28.4867 21.3411 28.6198C21.3001 28.8555 21.1451 28.9828 20.9112 29.0091C20.8212 29.0194 20.7291 29.0135 20.6377 29.0135C14.0384 29.0135 7.43984 29.0135 0.840541 29.0135C0.262937 29.0135 0.118143 28.8686 0.118143 28.284C0.118143 19.4265 0.118158 10.5697 0.114502 1.71214C0.114502 1.40993 0.174454 1.15603 0.442053 0.984802C5.65657 0.986266 10.8711 0.986266 16.0864 0.986266ZM1.11397 1.97483V28.0191H20.3745V19.0277C19.9175 19.4718 19.4818 19.9123 19.0255 20.3301C18.8632 20.4787 18.6644 20.6126 18.4582 20.6843C17.4009 21.0502 16.3357 21.3933 15.2733 21.746C15.1848 21.7753 15.1 21.8148 15.013 21.8492C15.2799 21.8916 15.5343 21.8909 15.788 21.8916C16.2618 21.8916 16.7363 21.8858 17.2101 21.8975C17.4865 21.9041 17.6634 22.0819 17.6817 22.3329C17.7022 22.6051 17.5508 22.7946 17.2642 22.8458C17.175 22.8619 17.0829 22.8648 16.993 22.8648C12.8181 22.8656 8.64257 22.8656 4.46774 22.8648C4.35002 22.8648 4.22865 22.8597 4.11605 22.8297C3.87258 22.7646 3.75631 22.5912 3.77093 22.3409C3.78483 22.1009 3.92228 21.9531 4.15332 21.907C4.26811 21.8843 4.38949 21.8924 4.50793 21.8924C7.67159 21.8924 10.8345 21.8924 13.9982 21.8924H14.3126C13.8754 21.3443 14.4149 20.9133 14.3893 20.4238H14.2212C10.9756 20.4238 7.73081 20.4238 4.48526 20.4238C4.3851 20.4238 4.28277 20.4311 4.18552 20.4136C3.94498 20.3697 3.79287 20.2299 3.7724 19.9753C3.75266 19.7257 3.88938 19.5355 4.1409 19.4777C4.25496 19.4513 4.3756 19.4477 4.49258 19.4477C7.82879 19.4462 11.1657 19.4448 14.5019 19.4506C14.6942 19.4506 14.7878 19.4052 14.847 19.2084C15.0086 18.6677 15.1863 18.1306 15.383 17.6023C15.4568 17.4047 15.5716 17.2035 15.7186 17.0549C17.213 15.5439 18.7199 14.0461 20.2144 12.5351C20.3153 12.4334 20.392 12.257 20.3935 12.1151C20.4059 10.4731 20.4015 8.83035 20.4008 7.18836C20.4008 7.09983 20.3928 7.01129 20.3876 6.9008C20.2692 6.9008 20.1705 6.9008 20.0718 6.9008C18.7682 6.9008 17.4645 6.9008 16.1609 6.9008C15.6644 6.9008 15.5321 6.76762 15.5314 6.26785C15.5307 4.93612 15.5314 3.60364 15.5314 2.27191C15.5314 2.17605 15.5314 2.08093 15.5314 1.97848H1.1169L1.11397 1.97483ZM22.7902 11.4148C20.7423 13.4783 18.7024 15.533 16.699 17.551C17.3015 18.1591 17.9274 18.7906 18.5137 19.3826C20.5514 17.3564 22.6052 15.3142 24.6539 13.2778C24.0353 12.6595 23.4102 12.0353 22.7902 11.4148ZM24.9515 9.28622C24.4835 9.75745 24.0039 10.2404 23.5469 10.7006C24.1494 11.3043 24.7731 11.9285 25.3799 12.5365C25.8471 12.0712 26.3289 11.5912 26.791 11.1309C26.1834 10.5214 25.5612 9.89794 24.9515 9.28622ZM16.5163 5.89248H19.609C18.5846 4.86953 17.5457 3.83121 16.5163 2.80314V5.89248ZM17.5406 19.9811C17.0566 19.4945 16.5799 19.0152 16.1002 18.533C15.8699 19.2223 15.6308 19.9387 15.3757 20.704C16.1441 20.4472 16.8636 20.2072 17.5413 19.9811H17.5406Z" fill="#FCFCFC"/>
<path d="M10.7116 25.2951C8.63373 25.2951 6.55655 25.2951 4.47864 25.2951C4.3697 25.2951 4.25709 25.3024 4.1518 25.2798C3.92369 25.23 3.78259 25.0866 3.7687 24.8451C3.75481 24.5949 3.8696 24.4229 4.11307 24.3563C4.21689 24.3278 4.32875 24.3197 4.43623 24.3197C8.62788 24.3183 12.8195 24.3183 17.0112 24.3197C17.1194 24.3197 17.2313 24.3278 17.3343 24.3563C17.5778 24.4229 17.6933 24.5941 17.6794 24.8444C17.6663 25.0858 17.5244 25.2285 17.297 25.2798C17.2013 25.3017 17.0974 25.2951 16.998 25.2951C14.9026 25.2951 12.8064 25.2951 10.7109 25.2951H10.7116Z" fill="#FCFCFC"/>
<path d="M7.69956 17.0154C8.76484 17.0154 9.83015 17.0154 10.8954 17.0154C11.0044 17.0154 11.117 17.0081 11.2215 17.033C11.4628 17.0901 11.5995 17.254 11.5973 17.502C11.5951 17.7347 11.473 17.9016 11.239 17.9557C11.1257 17.982 11.0044 17.985 10.8866 17.9857C8.74658 17.9872 6.60723 17.9872 4.46718 17.9864C4.39406 17.9864 4.32095 17.9879 4.2493 17.9799C3.92906 17.9447 3.7514 17.7545 3.76748 17.4662C3.78211 17.1969 3.97146 17.0191 4.28439 17.0176C5.42278 17.0118 6.56046 17.0154 7.69885 17.0154V17.014L7.69956 17.0154Z" fill="#FCFCFC"/>
</g>
<defs>
<filter id="filter0_d_0_1" x="-107.169" y="-598" width="417.169" height="1842" filterUnits="userSpaceOnUse" color-interpolation-filters="sRGB">
<feFlood flood-opacity="0" result="BackgroundImageFix"/>
<feColorMatrix in="SourceAlpha" type="matrix" values="0 0 0 0 0 0 0 0 0 0 0 0 0 0 0 0 0 0 127 0" result="hardAlpha"/>
<feOffset dy="20"/>
<feGaussianBlur stdDeviation="25"/>
<feColorMatrix type="matrix" values="0 0 0 0 0 0 0 0 0 0 0 0 0 0 0 0 0 0 0.1 0"/>
<feBlend mode="normal" in2="BackgroundImageFix" result="effect1_dropShadow_0_1"/>
<feBlend mode="normal" in="SourceGraphic" in2="effect1_dropShadow_0_1" result="shape"/>
</filter>
<clipPath id="clip0_0_1">
<rect width="1920" height="1447" fill="white" transform="translate(-66 -554)"/>
</clipPath>
</defs>
</svg>
