<svg width="29" height="28" viewBox="0 0 29 28" fill="none" xmlns="http://www.w3.org/2000/svg">
<rect width="29" height="28" fill="#F5F5F5"/>
<g clip-path="url(#clip0_0_1)">
<rect width="1920" height="1447" transform="translate(-66 -688)" fill="white"/>
<g filter="url(#filter0_d_0_1)">
<path d="M-57.1687 -692C-57.1687 -697.523 -52.6915 -702 -47.1687 -702H250C255.523 -702 260 -697.523 260 -692V1030C260 1035.52 255.523 1040 250 1040H-47.1687C-52.6916 1040 -57.1687 1035.52 -57.1687 1030V-692Z" fill="#094C89"/>
</g>
<path d="M22.8026 11.556C23.3233 11.0879 23.857 10.7365 24.52 10.5961C25.6898 10.3482 26.8926 10.837 27.5494 11.8392C28.2008 12.8328 28.1793 14.1511 27.4863 15.1072C27.3525 15.2921 27.1941 15.4625 27.0318 15.6244C25.6828 16.9734 24.3277 18.3162 22.9856 19.6721C22.8803 19.7787 22.8042 19.966 22.8026 20.1163C22.7895 21.7155 22.8026 23.3153 22.7918 24.9145C22.7826 26.4415 21.8512 27.5994 20.42 27.8779C20.2054 27.9193 19.9808 27.9255 19.7616 27.9255C14.2242 27.9278 8.68677 27.9285 3.15012 27.927C1.62348 27.927 0.453697 27.0047 0.169904 25.5767C0.123759 25.3442 0.116841 25.1009 0.116841 24.8623C0.114534 17.6225 0.113764 10.382 0.115302 3.14223C0.115302 1.58532 1.02206 0.422813 2.46256 0.132763C2.69559 0.0859554 2.93939 0.0798167 3.1778 0.0798167C7.49623 0.0767474 11.8146 0.0798169 16.1331 0.0721436C16.4861 0.0721436 16.7468 0.17957 16.9968 0.429719C18.8157 2.2575 20.6438 4.07607 22.4765 5.89081C22.7049 6.11717 22.8064 6.36349 22.8049 6.68116C22.798 8.20354 22.8018 9.72669 22.8018 11.2491C22.8018 11.3511 22.8018 11.4532 22.8018 11.5545L22.8026 11.556ZM21.629 21.0157C20.4846 22.1582 19.4132 23.2417 18.3219 24.3044C18.1327 24.4886 17.8758 24.6444 17.6228 24.7173C16.2423 25.1132 14.8525 25.48 13.4659 25.8544C12.8575 26.0187 12.4991 25.6641 12.6637 25.0603C13.0429 23.6668 13.4167 22.2725 13.8135 20.8844C13.8781 20.6573 14.015 20.4248 14.1811 20.2575C16.5953 17.832 19.0218 15.418 21.4367 12.9932C21.5428 12.8873 21.6197 12.7001 21.6205 12.5505C21.6328 10.8171 21.629 9.08367 21.6282 7.35027C21.6282 7.25743 21.6197 7.16458 21.6136 7.04257C21.4936 7.04257 21.3906 7.04257 21.2883 7.04257C20.453 7.04257 19.6186 7.04718 18.7834 7.04181C17.0983 7.03106 15.8362 5.78722 15.8108 4.10523C15.7985 3.25273 15.8085 2.40099 15.8085 1.54849C15.8085 1.44873 15.8085 1.34821 15.8085 1.23618C15.6824 1.23618 15.6063 1.23618 15.5294 1.23618C11.4032 1.23618 7.27627 1.23465 3.15012 1.23695C1.98264 1.23695 1.27816 1.9498 1.27816 3.12458C1.27739 10.3743 1.27739 17.6233 1.27816 24.873C1.27816 26.0632 1.9811 26.7699 3.17011 26.7699C8.68831 26.7714 14.2058 26.7584 19.724 26.7814C20.7991 26.786 21.6782 26.0041 21.6374 24.8554C21.5974 23.7366 21.629 22.6148 21.629 21.4945C21.629 21.364 21.629 21.2336 21.629 21.0164V21.0157ZM17.6866 23.2141C20.1454 20.7609 22.5988 18.3124 25.0183 15.8983C24.2293 15.1141 23.4179 14.3092 22.6326 13.5296C20.2085 15.949 17.7558 18.396 15.3078 20.8399C16.0946 21.6257 16.8999 22.4298 17.6866 23.2148V23.2141ZM23.5255 12.5766C24.3469 13.3945 25.1583 14.2033 25.9743 15.0159C26.595 14.5194 27.0187 13.9017 26.8103 13.0293C26.6403 12.3187 26.1781 11.8844 25.4598 11.7432C24.6107 11.576 24.0055 11.975 23.5255 12.5766ZM16.9922 2.15084C16.9922 2.86906 16.9629 3.58652 16.9998 4.3009C17.0421 5.10967 17.6643 5.77111 18.4796 5.8463C19.1548 5.90846 19.8385 5.877 20.5192 5.88544C20.5907 5.88621 20.6622 5.87239 20.7153 5.86702C19.4763 4.63009 18.2404 3.39622 16.9929 2.15084H16.9922ZM14.7203 21.9549C14.4903 22.8012 14.268 23.6215 14.0289 24.5016C14.9172 24.2576 15.7347 24.0328 16.5761 23.8018C15.9446 23.1734 15.3509 22.5818 14.721 21.9541L14.7203 21.9549Z" fill="#FCFCFC"/>
<path d="M4.74522 14.5816C4.1984 14.5816 3.65159 14.5839 3.10477 14.5816C2.66331 14.5793 2.44335 14.3675 2.44181 13.9355C2.43797 12.8252 2.43874 11.7141 2.44181 10.6037C2.44335 10.1832 2.65408 9.9515 3.07246 9.94767C4.20456 9.93769 5.33666 9.93769 6.46875 9.94767C6.87175 9.9515 7.09017 10.1817 7.09248 10.5838C7.09863 11.7041 7.0994 12.8244 7.09248 13.9447C7.09017 14.3621 6.86022 14.5785 6.44415 14.5816C5.8781 14.5854 5.31204 14.5823 4.74599 14.5823L4.74522 14.5816ZM3.61775 13.4091H5.91732V11.1263H3.61775V13.4091Z" fill="#FCFCFC"/>
<path d="M2.44013 5.87156C2.44013 5.31601 2.43705 4.76046 2.4409 4.20568C2.44398 3.78979 2.66394 3.55499 3.07617 3.55269C4.19903 3.54578 5.3219 3.54655 6.444 3.55269C6.85854 3.55499 7.08926 3.78365 7.09157 4.19571C7.09772 5.31601 7.09849 6.43631 7.09157 7.55662C7.08849 7.96791 6.85392 8.1935 6.43938 8.19504C5.32651 8.19964 4.21288 8.19964 3.10001 8.19504C2.66625 8.1935 2.44474 7.96867 2.4409 7.53743C2.43705 6.98189 2.44013 6.42634 2.44013 5.87156ZM5.92025 4.7267H3.62376V7.02179H5.92025V4.7267Z" fill="#FCFCFC"/>
<path d="M2.44026 18.6293C2.44026 18.0929 2.43872 17.5573 2.44026 17.021C2.44257 16.556 2.6433 16.3434 3.0986 16.3419C4.21147 16.3373 5.32433 16.3373 6.4372 16.3419C6.87404 16.3434 7.09093 16.5598 7.09247 16.9987C7.09708 18.0998 7.09785 19.201 7.09247 20.3013C7.09016 20.7548 6.87328 20.9666 6.41567 20.9681C5.3128 20.972 4.20916 20.972 3.10629 20.9681C2.64791 20.9666 2.44334 20.754 2.44103 20.2952C2.43795 19.7396 2.44103 19.1849 2.44103 18.6293H2.44026ZM3.6162 19.7918H5.91807V17.5236H3.6162V19.7918Z" fill="#FCFCFC"/>
<path d="M11.4517 11.6896C10.6457 11.6896 9.84042 11.6919 9.03441 11.6872C8.90136 11.6872 8.76293 11.678 8.63757 11.6404C8.39223 11.566 8.23226 11.3136 8.26072 11.0603C8.28994 10.7971 8.43069 10.6138 8.69525 10.5531C8.81523 10.5255 8.94289 10.524 9.06672 10.524C10.6587 10.5224 12.2515 10.5224 13.8435 10.5232C13.8912 10.5232 13.9397 10.5224 13.9873 10.524C14.4065 10.5416 14.6572 10.7688 14.6472 11.1217C14.638 11.4594 14.385 11.6849 13.9843 11.688C13.1398 11.6942 12.2961 11.6896 11.4517 11.6903V11.6896Z" fill="#FCFCFC"/>
<path d="M11.4523 16.9235C12.2867 16.9235 13.1212 16.922 13.9564 16.9235C14.3902 16.9251 14.6394 17.1292 14.6478 17.4814C14.6571 17.8428 14.3917 18.0784 13.9587 18.0791C12.2798 18.0814 10.6009 18.0791 8.92199 18.0807C8.6505 18.0807 8.43284 17.9901 8.31133 17.7346C8.21135 17.5236 8.22135 17.2949 8.39055 17.1499C8.52975 17.0309 8.73817 16.9381 8.91891 16.9327C9.7626 16.9105 10.6071 16.9228 11.4515 16.9228L11.4523 16.9235Z" fill="#FCFCFC"/>
<path d="M11.4554 5.29284C10.6494 5.29284 9.84421 5.29284 9.0382 5.29284C8.93284 5.29284 8.82594 5.29284 8.72288 5.27596C8.46524 5.23222 8.27988 5.0212 8.25835 4.76261C8.23758 4.50863 8.39063 4.25694 8.63674 4.18251C8.7621 4.14491 8.90053 4.13647 9.03358 4.1357C10.6448 4.13264 12.2561 4.1334 13.8681 4.13417C13.9634 4.13417 14.0611 4.1334 14.1549 4.14952C14.468 4.20476 14.6672 4.45568 14.6472 4.75724C14.6272 5.04806 14.4134 5.26061 14.1034 5.28593C13.9604 5.29744 13.8158 5.29207 13.6719 5.29284C12.9336 5.29284 12.1945 5.29284 11.4562 5.29284H11.4554Z" fill="#FCFCFC"/>
<path d="M10.5872 6.46111C11.1432 6.46111 11.6985 6.45727 12.2546 6.46264C12.6483 6.46648 12.9067 6.69898 12.906 7.03584C12.906 7.37116 12.6422 7.6144 12.2553 7.61594C11.134 7.62054 10.0127 7.62054 8.89211 7.61594C8.50987 7.6144 8.24992 7.36042 8.25838 7.02202C8.26607 6.69054 8.51141 6.46801 8.89211 6.46341C9.45739 6.45727 10.0227 6.46187 10.5879 6.46187L10.5872 6.46111Z" fill="#FCFCFC"/>
<path d="M10.5872 12.8468C11.1433 12.8468 11.6993 12.843 12.2546 12.8483C12.6445 12.8514 12.9052 13.0877 12.906 13.4231C12.906 13.7584 12.6422 14.0001 12.2554 14.0016C11.134 14.0055 10.0127 14.0055 8.89138 14.0016C8.5076 14.0001 8.24919 13.7499 8.25765 13.41C8.26534 13.077 8.50991 12.8529 8.89061 12.8491C9.45588 12.8429 10.0212 12.8468 10.5872 12.8468Z" fill="#FCFCFC"/>
<path d="M10.558 20.3909C10.012 20.3909 9.46515 20.3948 8.9191 20.3902C8.50533 20.3863 8.24846 20.1523 8.25769 19.8001C8.26692 19.4655 8.52764 19.2361 8.92064 19.2353C10.032 19.2323 11.1441 19.2315 12.2554 19.2353C12.643 19.2369 12.9061 19.4801 12.9061 19.8154C12.9061 20.1507 12.6453 20.3863 12.2546 20.3894C11.6894 20.3948 11.1241 20.3909 10.558 20.3909Z" fill="#FCFCFC"/>
</g>
<defs>
<filter id="filter0_d_0_1" x="-107.169" y="-732" width="417.169" height="1842" filterUnits="userSpaceOnUse" color-interpolation-filters="sRGB">
<feFlood flood-opacity="0" result="BackgroundImageFix"/>
<feColorMatrix in="SourceAlpha" type="matrix" values="0 0 0 0 0 0 0 0 0 0 0 0 0 0 0 0 0 0 127 0" result="hardAlpha"/>
<feOffset dy="20"/>
<feGaussianBlur stdDeviation="25"/>
<feColorMatrix type="matrix" values="0 0 0 0 0 0 0 0 0 0 0 0 0 0 0 0 0 0 0.1 0"/>
<feBlend mode="normal" in2="BackgroundImageFix" result="effect1_dropShadow_0_1"/>
<feBlend mode="normal" in="SourceGraphic" in2="effect1_dropShadow_0_1" result="shape"/>
</filter>
<clipPath id="clip0_0_1">
<rect width="1920" height="1447" fill="white" transform="translate(-66 -688)"/>
</clipPath>
</defs>
</svg>
