<svg width="26" height="37" viewBox="0 0 26 37" fill="none" xmlns="http://www.w3.org/2000/svg">
<rect width="26" height="37" fill="#F5F5F5"/>
<g clip-path="url(#clip0_0_1)">
<rect width="1920" height="1447" transform="translate(-1755 -52)" fill="white"/>
<path opacity="0.5" d="M263 -103H-1441V1398H263V-103Z" fill="url(#paint0_linear_0_1)"/>
<g filter="url(#filter0_d_0_1)">
<path d="M13.2854 23.5534C15.1131 23.5534 16.5947 21.4314 16.5947 18.8138C16.5947 16.1962 15.1131 14.0742 13.2854 14.0742C11.4577 14.0742 9.97607 16.1962 9.97607 18.8138C9.97607 21.4314 11.4577 23.5534 13.2854 23.5534Z" fill="url(#paint1_linear_0_1)"/>
<path d="M22.7811 15.458H21.6685C21.4856 14.5206 21.2258 13.6175 20.8946 12.7675L21.6772 11.6455C21.97 11.2172 22.1339 10.6417 22.1339 10.0424C22.1339 9.44307 21.97 8.86759 21.6772 8.43931L20.5591 6.83791C20.2577 6.42557 19.857 6.19547 19.4402 6.19547C19.0234 6.19547 18.6226 6.42557 18.3212 6.83791L17.5473 7.94518C16.9515 7.46304 16.3177 7.08448 15.6592 6.81751V5.25805C15.6592 4.65689 15.4925 4.08035 15.1957 3.65527C14.8989 3.23019 14.4963 2.99138 14.0766 2.99138H12.494C12.0742 2.99138 11.6717 3.23019 11.3749 3.65527C11.0781 4.08035 10.9113 4.65689 10.9113 5.25805V6.81751C10.2526 7.08439 9.61847 7.46296 9.02243 7.94518L8.24931 6.83791C8.10234 6.62734 7.92784 6.46029 7.73579 6.34632C7.54373 6.23236 7.33788 6.1737 7.12999 6.1737C6.9221 6.1737 6.71624 6.23236 6.52419 6.34632C6.33213 6.46029 6.15763 6.62734 6.01066 6.83791L4.89253 8.44044C4.60002 8.86867 4.43623 9.44391 4.43623 10.043C4.43623 10.642 4.60002 11.2173 4.89253 11.6455L5.67594 12.7675C5.34474 13.6175 5.08496 14.5206 4.90202 15.458H3.78943C3.36969 15.458 2.96713 15.6969 2.67033 16.1219C2.37353 16.547 2.20679 17.1236 2.20679 17.7247V19.9914C2.20679 20.5925 2.37353 21.1691 2.67033 21.5942C2.96713 22.0192 3.36969 22.258 3.78943 22.258H4.91864C5.10417 23.1857 5.36525 24.0788 5.69651 24.9191L4.89253 26.0706C4.59978 26.4989 4.43584 27.0743 4.43584 27.6737C4.43584 28.273 4.59978 28.8485 4.89253 29.2768L6.01146 30.8793C6.15843 31.0899 6.33292 31.2569 6.52498 31.3709C6.71704 31.4849 6.92289 31.5435 7.13078 31.5435C7.33867 31.5435 7.54452 31.4849 7.73658 31.3709C7.92863 31.2569 8.10313 31.0899 8.2501 30.8793L9.06437 29.7131C9.64817 30.18 10.268 30.5478 10.9113 30.809V32.458C10.9113 33.0592 11.0781 33.6357 11.3749 34.0608C11.6717 34.4859 12.0742 34.7247 12.494 34.7247H14.0766C14.4963 34.7247 14.8989 34.4859 15.1957 34.0608C15.4925 33.6357 15.6592 33.0592 15.6592 32.458V30.809C16.3028 30.5474 16.9229 30.1792 17.507 29.712L18.3212 30.877C18.6227 31.2897 19.0236 31.52 19.4406 31.52C19.8575 31.52 20.2585 31.2897 20.5599 30.877L21.6788 29.2745C21.9713 28.8463 22.1351 28.271 22.1351 27.672C22.1351 27.0729 21.9713 26.4977 21.6788 26.0694L20.874 24.9191C21.2053 24.0788 21.4664 23.1857 21.6519 22.258H22.7811C23.2009 22.258 23.6034 22.0192 23.9002 21.5942C24.197 21.1691 24.3638 20.5925 24.3638 19.9914V17.7247C24.3638 17.1236 24.197 16.547 23.9002 16.1219C23.6034 15.6969 23.2009 15.458 22.7811 15.458ZM13.2853 25.819C12.318 25.8188 11.3724 25.4077 10.5682 24.6379C9.76397 23.8681 9.13718 22.774 8.76708 21.4941C8.39698 20.2141 8.30018 18.8057 8.48893 17.4469C8.67768 16.0882 9.14351 14.8401 9.8275 13.8605C10.5115 12.8808 11.3829 12.2137 12.3317 11.9434C13.2804 11.673 14.2638 11.8117 15.1575 12.3417C16.0512 12.8718 16.8151 13.7695 17.3526 14.9213C17.8901 16.0731 18.1771 17.4273 18.1772 18.8127C18.176 20.6703 17.6602 22.4514 16.743 23.7649C15.8259 25.0784 14.5823 25.8172 13.2853 25.819Z" fill="url(#paint2_linear_0_1)"/>
</g>
</g>
<defs>
<filter id="filter0_d_0_1" x="-1333.72" y="-22" width="1431.72" height="76" filterUnits="userSpaceOnUse" color-interpolation-filters="sRGB">
<feFlood flood-opacity="0" result="BackgroundImageFix"/>
<feColorMatrix in="SourceAlpha" type="matrix" values="0 0 0 0 0 0 0 0 0 0 0 0 0 0 0 0 0 0 127 0" result="hardAlpha"/>
<feOffset dy="4"/>
<feGaussianBlur stdDeviation="2"/>
<feComposite in2="hardAlpha" operator="out"/>
<feColorMatrix type="matrix" values="0 0 0 0 0 0 0 0 0 0 0 0 0 0 0 0 0 0 0.25 0"/>
<feBlend mode="normal" in2="BackgroundImageFix" result="effect1_dropShadow_0_1"/>
<feBlend mode="normal" in="SourceGraphic" in2="effect1_dropShadow_0_1" result="shape"/>
</filter>
<linearGradient id="paint0_linear_0_1" x1="-227.192" y1="1748.88" x2="-1581.28" y2="188.066" gradientUnits="userSpaceOnUse">
<stop stop-color="#E5FFFF"/>
<stop offset="0.1" stop-color="#E5FFFF"/>
<stop offset="0.62" stop-color="#F8FFFF"/>
<stop offset="0.98" stop-color="white"/>
</linearGradient>
<linearGradient id="paint1_linear_0_1" x1="13.2854" y1="14.0742" x2="13.2854" y2="23.5534" gradientUnits="userSpaceOnUse">
<stop stop-color="#2F4C8F"/>
<stop offset="1" stop-color="#2581BF"/>
</linearGradient>
<linearGradient id="paint2_linear_0_1" x1="13.2853" y1="2.99138" x2="13.2853" y2="34.7247" gradientUnits="userSpaceOnUse">
<stop stop-color="#2F4C8F"/>
<stop offset="1" stop-color="#2581BF"/>
</linearGradient>
<clipPath id="clip0_0_1">
<rect width="1920" height="1447" fill="white" transform="translate(-1755 -52)"/>
</clipPath>
</defs>
</svg>
