<svg width="32" height="23" viewBox="0 0 32 23" fill="none" xmlns="http://www.w3.org/2000/svg">
<rect width="32" height="23" fill="#F5F5F5"/>
<g clip-path="url(#clip0_0_1)">
<rect width="1920" height="1447" transform="translate(-66 -430)" fill="white"/>
<g filter="url(#filter0_d_0_1)">
<path d="M-57.1687 -434C-57.1687 -439.523 -52.6915 -444 -47.1687 -444H250C255.523 -444 260 -439.523 260 -434V1288C260 1293.52 255.523 1298 250 1298H-47.1687C-52.6916 1298 -57.1687 1293.52 -57.1687 1288V-434Z" fill="#094C89"/>
</g>
<path d="M0.115208 1.02357C0.305029 0.950829 0.494139 0.81453 0.683959 0.81453C7.49914 0.803937 14.3143 0.805349 21.1295 0.806056C21.6079 0.806056 21.6976 0.89857 21.6976 1.38515C21.699 2.90704 21.6976 4.42822 21.6976 5.9501C21.6976 6.07228 21.6976 6.19375 21.6976 6.36253C21.8246 6.36253 21.9325 6.36253 22.0405 6.36253C22.979 6.36253 23.9183 6.3703 24.8568 6.35759C25.1362 6.35406 25.3077 6.45646 25.4467 6.69728C26.3824 8.32439 27.3301 9.94373 28.2651 11.5708C28.3617 11.7389 28.4704 11.8187 28.6609 11.8434C30.1844 12.0405 31.5372 13.4352 31.4659 15.2064C31.432 16.0426 31.4603 16.8809 31.4603 17.7184C31.4603 18.2142 31.4419 18.2396 30.9621 18.3921C30.9621 18.6301 30.9677 18.8745 30.9607 19.1181C30.9458 19.6457 30.6389 19.9988 30.1223 19.9599C29.519 19.914 29.1817 20.0694 28.867 20.6605C28.27 21.7813 27.22 22.2749 25.9477 22.1704C24.7008 22.068 23.823 21.3992 23.3206 20.2594C23.2211 20.0334 23.1124 19.9663 22.8739 19.9677C21.2721 19.979 19.6702 19.9776 18.0684 19.9684C17.8645 19.967 17.7664 20.0249 17.6881 20.2198C17.1983 21.4303 16.0636 22.193 14.7815 22.1944C13.5049 22.1958 12.3618 21.4289 11.8728 20.2212C11.793 20.0249 11.6971 19.9656 11.4931 19.9684C10.6873 19.9797 9.88072 19.979 9.07487 19.9684C8.88011 19.9656 8.79896 20.0327 8.72487 20.2142C8.23444 21.4253 7.10469 22.1859 5.81969 22.1916C4.54246 22.1972 3.39507 21.4345 2.90817 20.2255C2.82138 20.0094 2.70777 19.9628 2.50313 19.9684C2.11573 19.9797 1.72762 19.9797 1.34022 19.967C0.849085 19.9515 0.552001 19.6485 0.523775 19.157C0.521658 19.1266 0.518842 19.0955 0.521664 19.0652C0.560475 18.6746 0.557651 18.3018 0.114502 18.1188C0.114502 12.4197 0.114502 6.72058 0.114502 1.02145L0.115208 1.02357ZM20.9383 1.56806H7.23805C7.23805 1.71707 7.23805 1.83924 7.23805 1.96071C7.23805 3.55393 7.2444 5.14714 7.22747 6.73965C7.22605 6.89219 7.11315 7.12595 6.9939 7.17256C6.87535 7.21917 6.63825 7.12101 6.53028 7.01013C6.00245 6.47058 5.50003 5.90561 4.98773 5.35124C4.93622 5.29545 4.87482 5.24813 4.81061 5.19093C4.25808 5.79827 3.72179 6.38654 3.18761 6.97623C3.04507 7.13372 2.899 7.28273 2.66402 7.19092C2.42692 7.0977 2.43257 6.88513 2.43257 6.67468C2.43468 5.08146 2.43398 3.48825 2.43398 1.89574C2.43398 1.78769 2.43398 1.67964 2.43398 1.55817H0.866729V11.6146H20.9383V1.56806ZM20.9298 14.0949H0.869546V17.5857C1.55121 17.5857 2.21382 17.5934 2.87501 17.5765C2.96463 17.5744 3.07824 17.4649 3.1361 17.3759C4.41545 15.3971 7.219 15.395 8.48353 17.3816C8.58655 17.544 8.69523 17.5913 8.87517 17.5899C9.82427 17.5821 10.7727 17.5821 11.7218 17.5899C11.9052 17.5913 12.0111 17.5362 12.1134 17.3773C13.3942 15.39 16.1751 15.3943 17.4524 17.3865C17.5568 17.5496 17.6697 17.5913 17.8489 17.5899C18.7776 17.5828 19.7062 17.5871 20.6342 17.5857C20.7308 17.5857 20.8282 17.5772 20.9291 17.5722V14.0949H20.9298ZM21.7357 12.544V17.5849C22.272 17.5849 22.7899 17.592 23.3079 17.5765C23.3812 17.5744 23.4582 17.4677 23.5203 17.3978C23.7574 17.1337 23.9564 16.8237 24.2287 16.604C25.7275 15.3971 27.8346 15.7594 28.8903 17.3787C28.9481 17.4677 29.0632 17.5729 29.1549 17.5765C29.6707 17.5955 30.1873 17.5857 30.7059 17.5857V15.5892C30.5147 15.5892 30.3418 15.5984 30.171 15.5878C29.3955 15.5376 28.8917 15.0172 28.867 14.2439C28.8606 14.0504 28.8649 13.8562 28.8649 13.6619C28.8649 13.25 29.0606 12.991 29.452 12.8851C29.0561 12.6471 28.6511 12.544 28.2157 12.544C26.5327 12.544 24.8497 12.544 23.1667 12.544C22.6989 12.544 22.231 12.544 21.7357 12.544ZM27.5114 11.7961C27.498 11.7403 27.4973 11.7086 27.4832 11.6853C26.6258 10.2043 25.7699 8.7234 24.9019 7.24883C24.8547 7.16903 24.7114 7.10829 24.6105 7.10476C24.1525 7.08923 23.6939 7.0977 23.2352 7.0977C22.7391 7.0977 22.243 7.0977 21.7427 7.0977V11.7961H27.5107H27.5114ZM20.9284 12.3901H0.871665V13.2792H20.9284V12.3901ZM3.1855 5.88301C3.53339 5.50095 3.84034 5.16621 4.14448 4.83076C4.59845 4.32982 5.05006 4.32605 5.49933 4.81946C5.81122 5.16127 6.12666 5.50025 6.47666 5.87878V1.5836H3.1855V5.88301ZM14.785 21.4585C16.1194 21.4543 17.204 20.359 17.1863 19.0334C17.1687 17.7149 16.0905 16.6478 14.7772 16.6485C13.4626 16.6492 12.3872 17.7234 12.3808 19.0412C12.3745 20.3801 13.4513 21.4628 14.785 21.4585ZM28.5974 19.0793C28.6122 17.7587 27.5707 16.6655 26.2822 16.6492C24.921 16.6323 23.8173 17.6923 23.8068 19.0256C23.7962 20.366 24.8582 21.4458 26.1975 21.4571C27.5234 21.4677 28.5819 20.419 28.5967 19.0793H28.5974ZM8.20198 19.0708C8.21397 17.7516 7.1682 16.6626 5.87686 16.6492C4.53612 16.6351 3.43318 17.6775 3.41907 18.9734C3.40425 20.3695 4.44791 21.455 5.80911 21.4578C7.13714 21.4606 8.18998 20.4112 8.20127 19.0715L8.20198 19.0708ZM17.9513 19.2163H23.0538C23.0708 18.9239 23.087 18.6542 23.1032 18.378H17.8821C17.9061 18.6676 17.9287 18.9388 17.9513 19.2163ZM11.6794 18.3809H8.90975C8.93938 18.6732 8.96619 18.9437 8.99301 19.2121H11.6075C11.6329 18.9225 11.6554 18.6605 11.6794 18.3809ZM2.70989 18.3794H1.25695C1.25695 18.6203 1.24849 18.8427 1.2626 19.0638C1.26683 19.1231 1.33951 19.2269 1.38256 19.2283C1.80312 19.241 2.2244 19.2361 2.6485 19.2361C2.67037 18.9282 2.68943 18.6662 2.70989 18.3801V18.3794ZM30.665 14.8258C30.6678 13.9197 30.3482 13.5779 29.6383 13.7078C29.4527 14.5991 29.7773 14.9593 30.665 14.8258ZM29.3906 19.2015C30.195 19.3491 30.2465 19.3074 30.2268 18.5313C30.2254 18.4833 30.2148 18.4352 30.207 18.3787H29.3123C29.3398 18.6676 29.3652 18.9359 29.3906 19.2022V19.2015Z" fill="#FCFCFC"/>
<path d="M15.7277 10.6451C14.6671 10.6451 13.6072 10.6466 12.5466 10.6451C12.1451 10.6451 12.0315 10.5357 12.028 10.143C12.0237 9.58159 12.0237 9.02015 12.028 8.45942C12.0308 8.0823 12.15 7.95942 12.5198 7.95871C14.6509 7.95659 16.7819 7.95659 18.9123 7.95871C19.2919 7.95871 19.4091 8.07665 19.4119 8.44812C19.4154 9.00956 19.4147 9.57099 19.4119 10.1317C19.4098 10.5449 19.3053 10.6444 18.8777 10.6451C17.8277 10.6466 16.7777 10.6451 15.727 10.6451H15.7277ZM12.7759 9.89232H18.6618V8.71295H12.7759V9.89232Z" fill="#FCFCFC"/>
<path d="M14.2862 6.35539C14.8776 6.35539 15.4689 6.35327 16.0602 6.3561C16.3665 6.35751 16.5232 6.48534 16.5232 6.72051C16.5232 6.95638 16.3665 7.08774 16.0602 7.08844C14.867 7.09127 13.6737 7.09127 12.4812 7.08844C12.1862 7.08774 12.0176 6.94084 12.0366 6.70568C12.0585 6.43731 12.2335 6.35186 12.4812 6.35398C13.0831 6.35751 13.6843 6.35539 14.2862 6.35539Z" fill="#FCFCFC"/>
<path d="M14.2883 3.4346C14.869 3.4346 15.4505 3.43248 16.0312 3.4353C16.358 3.43742 16.5259 3.56736 16.5245 3.80536C16.5231 4.04476 16.3622 4.16694 16.027 4.16764C14.8549 4.16976 13.6828 4.16764 12.5107 4.16906C12.2609 4.16906 12.057 4.11044 12.0365 3.81595C12.0196 3.57372 12.1918 3.43742 12.5157 3.4353C13.107 3.43177 13.6984 3.43389 14.289 3.4346H14.2883Z" fill="#FCFCFC"/>
<path d="M17.1659 5.6274C16.5851 5.6274 16.0036 5.62882 15.4229 5.6274C15.0828 5.62599 14.9275 5.513 14.9233 5.27006C14.9191 5.025 15.0814 4.89435 15.4074 4.89365C16.5795 4.89153 17.7523 4.89153 18.9243 4.89365C19.2504 4.89365 19.4126 5.025 19.4084 5.27006C19.4042 5.51229 19.2489 5.62599 18.9088 5.6274C18.3281 5.62952 17.7466 5.6274 17.1659 5.6274Z" fill="#FCFCFC"/>
<path d="M18.281 7.08891C18.0369 7.08891 17.7927 7.09456 17.5486 7.0875C17.3086 7.08043 17.1555 6.94908 17.1612 6.70897C17.1668 6.48651 17.3122 6.35798 17.5415 6.35657C18.0404 6.35374 18.5386 6.35092 19.0375 6.35798C19.2633 6.36151 19.403 6.48439 19.4058 6.71744C19.4087 6.95261 19.2661 7.07408 19.0438 7.08538C18.7898 7.09809 18.5351 7.0882 18.281 7.0882V7.08891Z" fill="#FCFCFC"/>
<path d="M18.2634 4.16514C18.0193 4.16514 17.7751 4.16938 17.5317 4.16373C17.3009 4.15879 17.1612 4.02743 17.1598 3.80427C17.1584 3.57969 17.3045 3.44339 17.5296 3.43845C18.0278 3.42856 18.5259 3.42786 19.0241 3.43704C19.2577 3.44128 19.4151 3.56274 19.4073 3.81557C19.4003 4.05144 19.2492 4.15808 19.027 4.16303C18.7729 4.16868 18.5189 4.16444 18.2641 4.16303L18.2634 4.16514Z" fill="#FCFCFC"/>
<path d="M13.1628 5.62607C12.9186 5.62607 12.6745 5.62819 12.431 5.62607C12.1911 5.62325 12.0373 5.50813 12.038 5.25955C12.0387 5.00955 12.2017 4.89726 12.4367 4.89444C12.9243 4.88949 13.4126 4.88737 13.9002 4.89585C14.1387 4.90009 14.2883 5.03497 14.2791 5.28003C14.2706 5.50884 14.1225 5.62325 13.8945 5.62537C13.6504 5.62748 13.4062 5.62536 13.1628 5.62607Z" fill="#FCFCFC"/>
<path d="M16.4736 19.0471C16.475 19.9849 15.7235 20.7469 14.7921 20.7533C13.8507 20.7596 13.0844 19.9884 13.0879 19.0393C13.0914 18.105 13.8542 17.3451 14.785 17.3486C15.7179 17.3514 16.4722 18.1106 16.4736 19.0478V19.0471ZM15.739 19.0358C15.7334 18.5117 15.3029 18.0831 14.7822 18.0824C14.2508 18.0824 13.8168 18.5259 13.8225 19.0647C13.8281 19.5838 14.2642 20.0174 14.7808 20.0174C15.3121 20.0174 15.7447 19.5739 15.739 19.0358Z" fill="#FCFCFC"/>
<path d="M27.9097 19.0724C27.8998 20.0018 27.1264 20.7602 26.1978 20.7525C25.2677 20.7447 24.5127 19.9777 24.5155 19.0441C24.5183 18.1119 25.2825 17.3471 26.2105 17.3478C27.1525 17.3485 27.9196 18.1275 27.9097 19.0724ZM27.1751 19.0575C27.1793 18.5272 26.732 18.0787 26.2034 18.0837C25.6855 18.0886 25.2536 18.5237 25.2508 19.0441C25.248 19.5653 25.6721 20.0046 26.1907 20.0173C26.7193 20.03 27.1716 19.5886 27.1758 19.0575H27.1751Z" fill="#FCFCFC"/>
<path d="M5.80253 20.7525C4.87742 20.7468 4.10897 19.9728 4.11109 19.047C4.11321 18.1197 4.88236 17.3499 5.80959 17.3478C6.7481 17.3457 7.52785 18.1324 7.51586 19.0696C7.50316 19.9989 6.73117 20.7581 5.80324 20.7525H5.80253ZM6.78057 19.0519C6.78198 18.5378 6.3473 18.0957 5.82935 18.0837C5.30717 18.0717 4.84426 18.5258 4.84497 19.0505C4.84497 19.5646 5.28247 20.0088 5.79689 20.0173C6.32542 20.0265 6.77845 19.5816 6.77986 19.0519H6.78057Z" fill="#FCFCFC"/>
</g>
<defs>
<filter id="filter0_d_0_1" x="-107.169" y="-474" width="417.169" height="1842" filterUnits="userSpaceOnUse" color-interpolation-filters="sRGB">
<feFlood flood-opacity="0" result="BackgroundImageFix"/>
<feColorMatrix in="SourceAlpha" type="matrix" values="0 0 0 0 0 0 0 0 0 0 0 0 0 0 0 0 0 0 127 0" result="hardAlpha"/>
<feOffset dy="20"/>
<feGaussianBlur stdDeviation="25"/>
<feColorMatrix type="matrix" values="0 0 0 0 0 0 0 0 0 0 0 0 0 0 0 0 0 0 0.1 0"/>
<feBlend mode="normal" in2="BackgroundImageFix" result="effect1_dropShadow_0_1"/>
<feBlend mode="normal" in="SourceGraphic" in2="effect1_dropShadow_0_1" result="shape"/>
</filter>
<clipPath id="clip0_0_1">
<rect width="1920" height="1447" fill="white" transform="translate(-66 -430)"/>
</clipPath>
</defs>
</svg>
