<svg width="29" height="29" viewBox="0 0 29 29" fill="none" xmlns="http://www.w3.org/2000/svg">
<rect width="29" height="29" fill="#F5F5F5"/>
<g clip-path="url(#clip0_0_1)">
<rect width="1920" height="1447" transform="translate(-67 -623)" fill="white"/>
<g filter="url(#filter0_d_0_1)">
<path d="M-58.1687 -627C-58.1687 -632.523 -53.6915 -637 -48.1687 -637H249C254.523 -637 259 -632.523 259 -627V1095C259 1100.52 254.523 1105 249 1105H-48.1687C-53.6916 1105 -58.1687 1100.52 -58.1687 1095V-627Z" fill="#094C89"/>
</g>
<path d="M6.16939 15.6513C5.56736 15.8423 4.99236 16.0251 4.40589 16.2112C4.46077 16.8916 4.27811 17.4891 3.80632 17.9834C3.06504 18.7589 1.87163 18.8688 1.00094 18.2458C0.128611 17.6219 -0.156429 16.4604 0.328472 15.5046C0.807638 14.5602 1.92651 14.0954 2.90942 14.4332C3.35992 14.5881 3.71622 14.8693 3.97013 15.2685C4.07498 15.4332 4.16917 15.4586 4.35019 15.3955C4.84656 15.2217 5.35112 15.0685 5.85404 14.9152C5.98509 14.875 6.03752 14.8291 6.02605 14.6725C5.84831 12.1715 6.35778 10.6574 8.05493 8.63432C8.00743 8.58268 7.96237 8.52366 7.90831 8.47447C7.13345 7.7736 6.35286 7.07846 5.58456 6.36938C5.43303 6.22921 5.33638 6.22921 5.16437 6.33905C4.01601 7.07026 2.59653 7.02435 1.50714 6.23741C0.446421 5.47095 -0.0368444 4.15527 0.269495 2.86746C0.576653 1.57637 1.64229 0.603339 2.98969 0.415619C4.32562 0.228719 5.40272 0.709086 6.15137 1.81409C6.89919 2.91746 6.88855 4.08395 6.23656 5.24388C6.18413 5.33651 6.12516 5.42504 6.05308 5.54063C6.94343 6.34479 7.83214 7.14649 8.70201 7.93098C9.20411 7.6203 9.68164 7.3211 10.1649 7.03009C10.2542 6.97681 10.3623 6.93992 10.4655 6.92763C10.6875 6.90221 10.8521 7.00468 10.9111 7.22109C10.9717 7.44324 10.8922 7.6203 10.6867 7.73999C10.3328 7.94574 9.96586 8.13346 9.63413 8.37036C7.4357 9.93935 6.39464 12.7232 7.01796 15.3242C7.64866 17.9531 9.82826 19.9615 12.5009 20.3738C16.272 20.9558 19.7319 18.3072 20.1742 14.4996C20.5968 10.8566 17.807 7.458 14.1449 7.15797C13.9507 7.1424 13.755 7.13256 13.5608 7.11944C13.2742 7.09977 13.1087 6.94484 13.1046 6.69072C13.1005 6.42513 13.2807 6.21773 13.5731 6.24642C14.2022 6.30872 14.8304 6.39479 15.4521 6.50546C15.7748 6.56284 16.0844 6.69482 16.4252 6.80138C16.974 6.12182 17.531 5.43324 18.083 4.74958C17.0469 3.19945 17.5998 1.74606 18.5212 0.991896C19.5336 0.163959 20.9621 0.16232 21.9106 0.994355C22.9222 1.88131 23.1483 3.40685 22.4357 4.53809C21.6493 5.78573 20.3241 6.08575 18.6507 5.37668C18.151 5.97591 17.6465 6.58169 17.1231 7.20961C18.2321 7.84327 19.1298 8.68105 19.8064 9.74671C20.483 10.8124 20.8565 11.9821 20.9605 13.2601C21.6502 13.3339 22.3259 13.4052 23.0148 13.479C23.0721 13.3216 23.1188 13.1749 23.1769 13.0322C23.6594 11.86 24.9159 11.1673 26.115 11.41C27.3289 11.6559 28.2184 12.7224 28.2315 13.9479C28.2446 15.1972 27.3772 16.2628 26.1363 16.5235C24.802 16.803 23.4423 15.9644 23.0942 14.625C23.0377 14.4086 22.9451 14.3454 22.7461 14.3282C22.1752 14.2774 21.6059 14.211 21.0129 14.1487C20.8237 16.4276 19.8981 18.3171 18.1068 19.7311C16.313 21.1476 14.2546 21.5788 12.0038 21.2214C11.9169 21.8247 11.8276 22.3928 11.7629 22.9634C11.7548 23.0396 11.8563 23.1609 11.9382 23.2109C12.9686 23.8397 13.4994 24.7381 13.4462 25.9595C13.3839 27.3695 12.1766 28.5573 10.7374 28.6261C9.27701 28.6958 7.95664 27.6293 7.76252 26.2243C7.51188 24.4094 8.78883 22.9216 10.6236 22.8879C10.7096 22.8863 10.7948 22.8789 10.8996 22.8724C10.9873 22.2338 11.0733 21.6083 11.1617 20.9583C8.62338 20.032 6.95571 18.2769 6.16693 15.6513H6.16939ZM1.06893 3.62408C1.06237 4.90451 2.07804 5.92426 3.36811 5.9341C4.69585 5.94394 5.76558 4.91599 5.77704 3.62162C5.78769 2.32725 4.74172 1.25913 3.45493 1.25093C2.13702 1.24274 1.07548 2.29856 1.06893 3.62408ZM12.623 25.7669C12.6271 24.6914 11.7441 23.7741 10.6989 23.7692C9.54895 23.7634 8.64631 24.6397 8.64877 25.7619C8.65041 26.8497 9.53257 27.7383 10.6187 27.7474C11.7163 27.7572 12.6189 26.8653 12.623 25.7669ZM22.0622 3.05928C22.0622 2.07231 21.2414 1.25093 20.2544 1.25011C19.2543 1.25011 18.4082 2.07887 18.4074 3.0601C18.4057 4.03968 19.2543 4.875 20.2512 4.875C21.221 4.875 22.063 4.03149 22.0622 3.05928ZM25.7358 15.6841C26.663 15.6783 27.4526 14.8832 27.4485 13.9585C27.4444 13.0175 26.672 12.2526 25.7259 12.2526C24.7545 12.2526 23.9444 13.0503 23.9608 13.9889C23.9772 14.9275 24.7766 15.6906 25.7366 15.6849L25.7358 15.6841ZM0.972274 16.4759C0.96654 17.1768 1.55137 17.767 2.25169 17.7687C2.94955 17.7703 3.54011 17.1776 3.53602 16.48C3.53192 15.7898 2.95938 15.2127 2.26971 15.2053C1.56611 15.1972 0.978007 15.7734 0.972274 16.4768V16.4759Z" fill="#FCFCFC"/>
<path d="M9.13209 13.9721C9.13209 12.9368 9.14028 11.9007 9.12717 10.8653C9.12308 10.5374 9.2484 10.3464 9.54654 10.2087C10.7768 9.64228 11.9973 9.05207 13.23 8.49055C13.3668 8.42825 13.5838 8.43808 13.7247 8.50202C14.9853 9.07256 16.236 9.66605 17.4942 10.244C17.7432 10.3587 17.8349 10.5342 17.8341 10.7965C17.8308 12.8966 17.83 14.9976 17.8341 17.0978C17.8341 17.3986 17.7301 17.579 17.4311 17.6897C16.1975 18.1454 14.9738 18.6291 13.7403 19.0857C13.592 19.1406 13.3881 19.1447 13.2406 19.0906C12.0071 18.634 10.7834 18.1512 9.54982 17.6938C9.24267 17.5798 9.12717 17.3913 9.12963 17.0781C9.137 16.0428 9.13209 15.0075 9.13209 13.9713V13.9721ZM16.9716 11.3686C16.8577 11.4178 16.7709 11.4539 16.6857 11.4924C15.8609 11.8662 15.0394 12.2482 14.2096 12.6106C14.0114 12.6974 13.9369 12.7983 13.9385 13.0196C13.9483 14.6009 13.9434 16.1822 13.945 17.7643C13.945 17.8569 13.9565 17.9487 13.9647 18.0692C14.9132 17.711 15.8216 17.3609 16.7365 17.0306C16.9413 16.9568 16.9929 16.8511 16.9912 16.6486C16.9839 14.9894 16.9871 13.3295 16.9863 11.6695C16.9863 11.5834 16.9781 11.4965 16.9724 11.3686H16.9716ZM13.0326 18.0594C13.0441 17.9815 13.0572 17.9348 13.0572 17.888C13.058 16.2371 13.0613 14.5853 13.0498 12.9344C13.0498 12.8409 12.9515 12.7032 12.863 12.6614C12.0079 12.2589 11.1446 11.872 10.2829 11.4818C10.2075 11.4482 10.1273 11.426 10.0429 11.3965C10.0306 11.4482 10.0175 11.4752 10.0175 11.5031C10.0159 13.2524 10.0126 15.0009 10.0241 16.7502C10.0241 16.8371 10.1404 16.965 10.2313 17.0019C10.7637 17.2183 11.3051 17.4134 11.8433 17.6151C12.2332 17.761 12.6239 17.9069 13.0318 18.0585L13.0326 18.0594ZM10.6425 10.703C11.4108 11.0612 12.139 11.3646 12.8311 11.7359C13.2963 11.9859 13.6846 11.9958 14.1539 11.7408C14.851 11.3629 15.5881 11.0588 16.3204 10.717C16.2819 10.6809 16.2647 10.6538 16.2401 10.6424C15.3735 10.2407 14.5069 9.83738 13.6363 9.44636C13.5543 9.40947 13.4266 9.42341 13.3397 9.4603C12.9277 9.63736 12.5231 9.83082 12.116 10.0185C11.641 10.2382 11.1667 10.4587 10.6417 10.7022L10.6425 10.703Z" fill="#FCFCFC"/>
</g>
<defs>
<filter id="filter0_d_0_1" x="-108.169" y="-667" width="417.169" height="1842" filterUnits="userSpaceOnUse" color-interpolation-filters="sRGB">
<feFlood flood-opacity="0" result="BackgroundImageFix"/>
<feColorMatrix in="SourceAlpha" type="matrix" values="0 0 0 0 0 0 0 0 0 0 0 0 0 0 0 0 0 0 127 0" result="hardAlpha"/>
<feOffset dy="20"/>
<feGaussianBlur stdDeviation="25"/>
<feColorMatrix type="matrix" values="0 0 0 0 0 0 0 0 0 0 0 0 0 0 0 0 0 0 0.1 0"/>
<feBlend mode="normal" in2="BackgroundImageFix" result="effect1_dropShadow_0_1"/>
<feBlend mode="normal" in="SourceGraphic" in2="effect1_dropShadow_0_1" result="shape"/>
</filter>
<clipPath id="clip0_0_1">
<rect width="1920" height="1447" fill="white" transform="translate(-67 -623)"/>
</clipPath>
</defs>
</svg>
